<svg width="294" height="499" viewBox="0 0 294 499" fill="none" xmlns="http://www.w3.org/2000/svg">
<path opacity="0.15" d="M214.491 158.811C209.226 143.409 188.43 126.524 188.43 126.524L188.418 126.516C188.422 126.514 188.419 126.511 188.422 126.508L188.43 126.524C188.43 126.524 188.436 126.462 188.443 126.363C188.445 126.326 188.449 126.288 188.456 126.252L188.465 126.233C189.715 118.581 188.505 111.899 186.3 106.362C186.167 105.891 186.035 105.422 185.885 104.95C184.448 100.42 180.959 96.0326 177.388 92.4582C177.344 92.413 177.3 92.3678 177.254 92.3192C174.739 89.6431 172.833 88.2372 172.833 88.2372C172.833 88.2372 172.786 80.8699 168.975 73.4795C129.243 55.9488 89.3797 43.0621 49.3002 37.7309L-102.515 -47.9493L-181.646 66.5579C-172.753 70.657 -10.1267 122.959 -4.50242 126.908C5.02606 133.574 9.2537 158.35 26.5202 168.082C32.9467 171.693 43.1581 175.979 55.031 180.403C57.476 181.312 59.9875 182.224 62.5457 183.132C79.7439 189.272 99.2222 195.447 115.3 200.199C115.301 200.2 115.304 200.2 115.306 200.201C115.306 200.204 115.303 200.206 115.302 200.209C125.897 203.347 135.015 205.862 141.025 207.363C133.436 213.482 126.478 224.214 123.748 228.71C123.366 228.625 122.995 228.523 122.611 228.442C66.0078 216.529 6.20495 249.762 -10.9612 302.672C-28.1273 355.581 3.84371 408.129 60.449 420.042C117.053 431.955 176.855 398.723 194.02 345.813C206.656 306.866 192.644 268.136 161.801 245.644C164.691 241.27 169.438 233.355 171.906 225.179C172.517 223.128 172.729 221.173 172.58 219.318C171.914 210.18 162.588 203.895 151.791 202.928C151.119 202.868 150.438 202.906 149.752 202.999C149.752 201.81 149.601 200.604 149.315 199.394C148.062 191.395 140.235 183.386 135.988 179.56C135.961 179.534 135.933 179.505 135.906 179.479C135.886 179.472 135.867 179.466 135.856 179.44C132.884 176.581 130.63 174.814 130.63 174.814C149.04 181.641 163.499 175.676 168.612 172.976C169.929 172.281 170.619 171.796 170.619 171.796L174.82 174.746L181.969 179.781L182.133 179.898C182.134 179.9 182.144 179.923 182.163 179.972C182.473 181.156 186.37 195.971 192.024 207.883C193.832 211.683 195.803 215.197 197.896 217.853C199.469 219.85 201.441 221.495 203.634 222.875C203.917 223.04 204.173 223.216 204.456 223.381C204.458 223.383 204.462 223.384 204.465 223.386C211.019 227.425 219.265 229.413 224.029 229.145C224.063 229.147 224.095 229.152 224.132 229.152C224.294 229.145 224.457 229.138 224.629 229.113C224.705 229.097 224.791 229.106 224.876 229.071C224.893 229.068 224.913 229.064 224.931 229.062C226.262 228.885 227.229 228.491 227.66 227.868C227.826 227.626 227.94 227.2 228.006 226.613C228.01 226.607 228.014 226.601 228.017 226.595C228.293 225.984 228.383 225.285 228.272 224.579C228.186 224.055 228.101 223.529 228.025 222.986C228.014 222.961 228.013 222.917 228.003 222.892C227.997 222.853 227.99 222.808 227.984 222.769C227.875 221.174 227.671 219.274 227.39 217.139C227.003 210.293 226.165 203.525 224.654 196.843C224.454 197.148 224.254 197.453 224.055 197.759C223.52 195.078 222.954 192.351 222.369 189.633C222.316 189.368 222.262 189.098 222.208 188.835C222.095 188.365 222.003 187.902 221.91 187.439C220.723 181.667 219.381 175.882 217.859 170.421C217.78 170.103 217.693 169.799 217.607 169.496C216.473 165.179 215.403 161.478 214.491 158.811Z" fill="#2A1009"/>
<path d="M51.9913 196.549C49.4318 195.641 46.9204 194.73 44.4771 193.82C32.6042 189.397 22.3928 185.11 15.9663 181.5C-1.29983 171.769 -5.52617 146.993 -15.0564 140.326C-20.6807 136.377 -183.307 84.0748 -192.2 79.9757L-113.069 -34.5315L38.7467 51.1498C78.8257 56.4799 118.689 69.3678 158.419 86.8994C162.23 94.2897 162.277 101.657 162.277 101.657C162.277 101.657 164.183 103.064 166.698 105.739C166.847 105.9 166.987 106.034 167.136 106.195C169.942 109.253 173.386 113.805 175.685 119.628C177.929 125.195 179.169 131.932 177.907 139.652L177.898 139.671C177.882 139.751 177.885 139.839 177.868 139.918C177.888 139.925 177.859 139.937 177.859 139.937C177.859 139.937 199.09 161.454 201.989 168.242C203.844 172.553 205.499 177.461 206.984 182.671C207.093 183.054 207.203 183.436 207.302 183.838C208.824 189.3 210.165 195.083 211.353 200.857C211.446 201.32 211.539 201.782 211.651 202.252C211.951 203.734 212.243 205.235 212.556 206.743C212.829 208.28 213.104 209.817 213.386 211.335C213.694 213.035 213.992 214.709 214.261 216.353C215.305 222.418 216.185 228.124 216.971 233.089C217.135 234.2 217.295 235.267 217.447 236.309C217.457 236.334 217.459 236.378 217.469 236.403C217.546 236.946 217.631 237.47 217.716 237.996C217.827 238.701 217.737 239.4 217.462 240.012C216.976 241.193 215.908 242.126 214.57 242.447C214.494 242.463 214.398 242.472 214.322 242.488C214.237 242.523 214.15 242.513 214.074 242.53C213.902 242.555 213.74 242.562 213.577 242.569C213.395 242.568 213.223 242.55 213.05 242.532C207.878 241.902 200.127 240.402 193.903 236.798C193.62 236.633 193.365 236.458 193.081 236.292C190.889 234.913 188.917 233.269 187.344 231.27C185.25 228.615 183.279 225.101 181.471 221.3C175.817 209.388 171.92 194.574 171.61 193.39C171.589 193.339 171.579 193.314 171.579 193.314L164.266 188.164L160.065 185.213C160.065 185.213 159.374 185.7 158.058 186.394C152.945 189.094 138.486 195.059 120.076 188.232C120.076 188.232 122.33 189.998 125.303 192.858C125.313 192.882 125.332 192.89 125.352 192.897C130.147 197.519 136.785 204.987 138.662 212.424C138.696 212.544 138.737 212.645 138.751 212.757C139.177 214.541 139.335 216.318 139.108 218.042C139.092 218.122 139.095 218.21 139.079 218.29C138.918 219.415 138.224 220.372 137.268 220.98C136.791 221.304 136.206 221.527 135.606 221.637C135.075 221.748 134.509 221.741 133.959 221.612C129.52 220.596 121.789 218.544 112.282 215.797C111.441 215.563 110.581 215.322 109.709 215.057C108.095 214.592 106.44 214.113 104.747 213.621C88.6691 208.863 69.1908 202.688 51.9913 196.549Z" fill="#EDB78E"/>
<path opacity="0.88" d="M214.1 210.26C212.951 212.012 211.801 213.766 210.651 215.517C209.011 218.018 207.349 220.564 206.529 223.339C205.445 227.003 205.946 230.938 207.895 234.079C209.844 237.22 213.221 239.53 217.108 240.384C217.119 230.167 216.331 220.123 214.1 210.26Z" fill="#EDB78E"/>
<path d="M159.492 126.841L177.876 139.942C177.876 139.942 198.672 156.827 203.937 172.229C209.201 187.63 219.743 237.464 217.106 241.284C214.469 245.106 191.98 240.426 185.703 228.688C179.427 216.951 171.593 193.322 171.593 193.322L124.466 159.787L85.4084 161.307" stroke="#260B05" stroke-width="1.5" stroke-miterlimit="10" stroke-linecap="round" stroke-linejoin="round"/>
<path d="M81.5472 153.353C81.5472 153.353 83.2296 164.193 91.1007 170.276C98.9731 176.359 119.589 188.057 123.449 191.254C127.309 194.451 144.627 209.737 137.048 221.318" stroke="#260B05" stroke-width="1.5" stroke-miterlimit="10" stroke-linecap="round" stroke-linejoin="round"/>
<path d="M156.756 97.5179C156.756 97.5179 171.894 107.549 175.329 118.37C178.763 129.191 177.876 139.942 177.876 139.942" stroke="#260B05" stroke-width="1.5" stroke-miterlimit="10" stroke-linecap="round" stroke-linejoin="round"/>
<path opacity="0.88" d="M104.749 213.626C105.382 212.046 107.193 210.946 108.932 210.316C115.333 208.007 122.303 209.661 128.251 212.156C131.933 213.698 136.707 217.71 135.61 221.642C135.077 221.755 134.513 221.748 133.962 221.616C128.393 220.352 117.664 217.453 104.749 213.626Z" fill="#EDB78E"/>
<path d="M162.028 232.734C162.178 234.589 157.199 233.311 156.587 235.362C152.89 247.608 148.824 262.552 148.824 262.552L139.52 257.918L111.969 244.204C111.969 244.204 128.267 215.174 141.239 216.344C152.036 217.309 161.362 223.595 162.028 232.734Z" fill="white"/>
<path d="M162.028 232.734C162.178 234.589 161.965 236.544 161.354 238.595C157.656 250.841 148.824 262.552 148.824 262.552L139.52 257.918L132.264 252.054C132.264 252.054 141.489 227.819 153.682 228.71C156.994 228.955 159.775 230.494 162.028 232.734Z" fill="#DDE4E6"/>
<path d="M186.579 314.307C176.733 261.633 121.472 229.39 63.149 242.292C4.82604 255.194 -34.4728 308.354 -24.6275 361.029C-14.7821 413.703 40.4793 445.946 98.8022 433.044C157.125 420.142 196.424 366.982 186.579 314.307Z" fill="white"/>
<path d="M167.314 291.462C166.85 290.652 166.374 289.857 165.87 289.067C154.097 270.37 134.307 256.196 109.128 250.894C93.1333 247.528 76.8575 248.146 61.5667 252.053C45.1689 256.223 29.8666 264.16 17.29 275.006C17.2499 275.04 17.2102 275.072 17.1701 275.106C3.91383 286.547 -6.3627 301.222 -11.8463 318.123C-27.3928 366.041 1.56099 413.632 52.8257 424.421C104.09 435.211 158.25 405.113 173.797 357.195C179.279 340.295 179.23 323.446 174.618 308.244C174.333 307.301 174.018 306.376 173.683 305.463C172.013 300.605 169.897 295.911 167.314 291.462Z" fill="#B27E53"/>
<path d="M56.2609 411.318C9.06403 401.385 -19.1915 360.257 -11.2516 316.4C-11.45 316.974 -11.6573 317.544 -11.845 318.123C-27.3916 366.041 1.56226 413.631 52.827 424.421C104.092 435.21 158.251 405.112 173.798 357.194C175.053 353.33 176.002 349.468 176.689 345.628C160.49 392.644 106.972 421.991 56.2609 411.318Z" fill="#6C4235"/>
<path d="M48.3389 303.554C48.3389 303.554 31.7572 299.626 32.2194 306.346C32.6816 313.067 63.8529 315.045 63.8529 315.045C63.8529 315.045 55.9407 287.827 47.1026 288.834C38.2644 289.84 48.3389 303.554 48.3389 303.554Z" fill="#EDB78E"/>
<path d="M81.7511 332.192C78.2786 330.722 74.0565 332.097 70.1237 332.571C61.3777 333.622 52.5522 329.593 48.5616 322.728C54.4071 319.736 60.8902 319.363 67.0179 320.937C73.1481 322.51 77.8677 327.684 81.7511 332.192Z" fill="#EDB78E"/>
<path d="M76.4457 322.902C74.5499 319.872 71.1865 317.907 68.863 315.153C64.784 310.319 64.3884 303.003 67.8983 297.321C75.4105 303.601 78.7524 313.328 76.4457 322.902Z" fill="#EDB78E"/>
<path d="M83.887 330.344C83.2206 328.2 81.9413 326.301 81.0171 324.255C77.7218 316.967 79.3458 307.735 85.0751 301.187C88.6842 304.979 90.1462 310.58 89.4526 315.797C88.759 321.015 86.6437 325.6 83.887 330.344Z" fill="#EDB78E"/>
<path d="M89.8158 342.879C86.4929 342.902 83.494 344.931 80.4031 346.269C75.2575 348.497 69.3755 348.861 64.1192 347.607C58.8624 346.353 54.2303 343.537 50.6908 339.873C56.907 336.765 63.8117 335.143 70.616 335.608C77.4199 336.072 84.7183 338.997 89.8158 342.879Z" fill="#EDB78E"/>
<path d="M93.3534 341.355C92.8224 340.033 92.2914 338.71 91.7605 337.388C91.044 335.604 90.325 333.813 89.8706 331.943C89.3055 329.62 89.1529 327.195 89.2947 324.773C89.7641 316.733 93.57 308.671 99.7697 302.586C103.946 307.883 103.936 315.528 101.779 322.137C99.6235 328.745 95.6083 334.768 93.3534 341.355Z" fill="#EDB78E"/>
<path d="M100.563 352.05C97.9074 352.492 95.5465 353.983 93.2303 355.356C89.1172 357.793 84.8335 359.974 80.4258 361.874C78.157 362.852 75.8447 363.759 73.4509 364.362C63.7767 366.797 53.1334 363.654 47.4224 356.675C55.2575 352.015 64.5761 350.672 73.5868 350.817C82.5961 350.963 91.5337 352.123 100.563 352.05Z" fill="#EDB78E"/>
<path d="M101.324 349.729C98.1156 334.669 104.114 317.647 116.632 306.283C119.14 310.449 119.62 315.559 118.335 320.404C117.398 323.938 115.769 327.324 114.101 330.671C110.953 336.986 105.949 344.16 101.324 349.729Z" fill="#EDB78E"/>
<path d="M110.539 362.806C108.248 363.706 106.149 365.008 104.045 366.267C99.4221 369.031 94.6852 371.623 89.8521 374.035C83.4958 377.208 76.8834 380.094 69.9149 381.412C62.9475 382.729 55.5307 382.358 49.6139 379.282C57.5203 372.944 67.4216 368.798 77.255 365.869C88.0672 362.649 99.8707 360.553 110.539 362.806Z" fill="#EDB78E"/>
<path d="M135.746 308.777C120.683 321.632 112.447 340.917 114.347 358.874C117.922 352.641 123.146 347.506 126.822 341.317C132.753 331.331 134.511 319.82 135.746 308.777Z" fill="#EDB78E"/>
<path d="M123.077 374.517C120.692 377.192 118.134 379.752 115.331 382.064C109.986 386.471 103.7 389.976 96.9304 391.83C90.16 393.684 82.9012 393.836 76.4866 391.839C80.5932 387.763 84.6439 383.402 89.4001 379.981C94.1563 376.56 99.6142 373.815 105.426 372.863C110.767 371.989 118.173 372.838 123.077 374.517Z" fill="#EDB78E"/>
<path d="M126.129 371.469C125.072 367.795 124.853 363.869 125.49 360.003C126.372 354.646 128.875 349.478 132.217 344.853C135.558 340.229 139.725 336.119 144.151 332.311C147.148 336.614 147.516 341.916 145.842 347.073C144.167 352.229 140.91 356.917 137.486 361.388C134.535 365.241 130.43 368.906 126.129 371.469Z" fill="#EDB78E"/>
<path opacity="0.33" d="M65.2517 268.073C67.9141 271.341 72.4122 272.854 76.797 273.875C83.4616 275.428 90.5102 276.191 97.4927 275.108C102.509 274.33 108.208 271.823 109.317 267.254C109.932 264.72 108.888 262.128 107.098 260.285C105.307 258.443 102.846 257.255 100.322 256.325C92.6471 253.504 83.9108 252.873 75.4902 254.421C72.5143 254.969 67.4234 255.554 65.2176 257.728C62.3552 260.548 63.1262 265.462 65.2517 268.073Z" fill="white"/>
<path opacity="0.33" d="M119.237 274.626C120.664 275.935 122.237 277.152 124.109 277.889C125.982 278.626 128.196 278.846 130.203 278.159C131.889 277.581 133.314 276.406 134.387 275.056C135.082 274.18 135.66 273.181 135.749 272.133C135.897 270.354 134.621 268.83 133.17 267.751C129.554 265.064 123.99 264.132 119.205 265.081C113.274 266.257 116.542 272.155 119.237 274.626Z" fill="white"/>
</svg>
