<svg width="1440" height="377" viewBox="0 0 1440 377" fill="none" xmlns="http://www.w3.org/2000/svg">
<rect y="236" width="1435" height="141" fill="#A38B5B"/>
<path d="M1149.05 334.263C1215.91 334.263 1270.1 322.046 1270.1 306.976C1270.1 291.905 1215.91 279.688 1149.05 279.688C1082.2 279.688 1028 291.905 1028 306.976C1028 322.046 1082.2 334.263 1149.05 334.263Z" fill="#A38B5B"/>
<path fill-rule="evenodd" clip-rule="evenodd" d="M1306 214.404C1306 246.249 1297.9 291.527 1266.53 305.811C1231.52 321.758 1178.45 320.958 1145.65 305.814C1114.36 291.367 1106.18 246.319 1106.18 214.406V161.039H1306V214.404H1306Z" fill="#E6B3B3"/>
<path fill-rule="evenodd" clip-rule="evenodd" d="M1306 214.404C1306 246.249 1298.64 291.527 1270.16 305.811C1238.37 321.758 1190.16 320.958 1160.38 305.814C1131.96 291.367 1124.53 246.319 1124.53 214.406V161.039H1306V214.404Z" fill="#FFD9D9"/>
<path d="M1206.09 183.594C1261.27 183.594 1306 173.495 1306 161.037C1306 148.578 1261.27 138.479 1206.09 138.479C1150.91 138.479 1106.18 148.578 1106.18 161.037C1106.18 173.495 1150.91 183.594 1206.09 183.594Z" fill="#FFD9D9"/>
<path d="M1206.09 178.347C1256.32 178.347 1297.04 170.597 1297.04 161.037C1297.04 151.476 1256.32 143.726 1206.09 143.726C1155.86 143.726 1115.15 151.476 1115.15 161.037C1115.15 170.597 1155.86 178.347 1206.09 178.347Z" fill="#E6B3B3"/>
<path fill-rule="evenodd" clip-rule="evenodd" d="M1292.17 166.637C1279.95 173.449 1246.03 178.35 1206.09 178.35C1166.16 178.35 1132.24 173.451 1120.01 166.637C1132.24 159.823 1166.16 154.925 1206.09 154.925C1246.02 154.925 1279.94 159.823 1292.17 166.637Z" fill="#5C3D30"/>
<path fill-rule="evenodd" clip-rule="evenodd" d="M1292.17 166.637C1286.49 169.803 1276.13 172.553 1262.66 174.593C1263.29 171.381 1265.94 171.556 1267.83 169.909C1269.72 168.261 1260.36 165.173 1250.39 163.701C1240.42 162.232 1232.51 161.328 1223.86 161.328C1219.35 161.328 1214.75 160.275 1209.91 159.397V154.94C1248.17 155.24 1280.33 160.042 1292.17 166.637ZM1209.91 178.334C1215.12 178.293 1220.23 178.166 1225.18 177.965C1219.32 175.964 1213.86 174.025 1209.91 173.01V178.334ZM1209.91 159.397C1205.48 158.594 1200.85 157.935 1195.89 158.361C1185.51 159.252 1180.33 161.922 1168.5 164.592C1156.68 167.262 1139.96 165.186 1148.03 169.932C1150.22 171.218 1152.02 173.049 1153.69 175.187C1138.19 173.103 1126.26 170.12 1120.01 166.637C1132.24 159.823 1166.16 154.925 1206.09 154.925C1207.37 154.925 1208.64 154.93 1209.91 154.94V159.397ZM1209.91 173.01C1207.85 172.483 1206.21 172.209 1205.12 172.308C1199.53 172.757 1196.03 174.918 1194.64 178.213C1198.39 178.303 1202.21 178.35 1206.09 178.35C1207.37 178.35 1208.64 178.344 1209.91 178.334L1209.91 173.012L1209.91 173.01Z" fill="#A17E6F"/>
<path fill-rule="evenodd" clip-rule="evenodd" d="M1276.3 168.223C1280.02 168.223 1283.04 167.402 1283.04 166.397C1283.04 165.393 1280.02 164.571 1276.3 164.571C1272.59 164.571 1269.57 165.393 1269.57 166.397C1269.57 167.402 1272.59 168.223 1276.3 168.223Z" fill="#5C3D30"/>
<path fill-rule="evenodd" clip-rule="evenodd" d="M1267.16 163.652C1269.23 163.652 1270.93 163.195 1270.93 162.632C1270.93 162.069 1269.23 161.612 1267.16 161.612C1265.08 161.612 1263.39 162.072 1263.39 162.632C1263.39 163.195 1265.08 163.652 1267.16 163.652Z" fill="#5C3D30"/>
<path fill-rule="evenodd" clip-rule="evenodd" d="M1147.09 164.145C1149.16 164.145 1150.85 163.688 1150.85 163.125C1150.85 162.563 1149.16 162.106 1147.09 162.106C1145.01 162.106 1143.32 162.563 1143.32 163.125C1143.32 163.688 1145.01 164.145 1147.09 164.145Z" fill="#5C3D30"/>
<path fill-rule="evenodd" clip-rule="evenodd" d="M1138.7 168.328C1142.09 168.328 1144.85 167.58 1144.85 166.663C1144.85 165.746 1142.09 164.998 1138.7 164.998C1135.32 164.998 1132.55 165.744 1132.55 166.663C1132.55 167.582 1135.31 168.328 1138.7 168.328Z" fill="#5C3D30"/>
<path fill-rule="evenodd" clip-rule="evenodd" d="M1218.64 129.109C1186.32 62.6008 1286.82 53.3568 1275.08 8.40723C1320.74 89.3516 1207.85 74.8607 1218.64 129.109Z" fill="white"/>
<path fill-rule="evenodd" clip-rule="evenodd" d="M1215.5 29.3534C1220.07 22.6657 1232.86 23.1615 1237.68 33.694C1241.08 41.1253 1236.99 48.0377 1227.63 62.18C1237.66 50.9013 1254.1 44.4072 1248.29 30.7607C1241.77 15.4332 1221.25 14.5088 1215.5 29.3534Z" fill="white"/>
<path fill-rule="evenodd" clip-rule="evenodd" d="M876.47 329.909C926.299 329.909 966.94 320.715 966.94 309.442C966.94 298.169 926.299 288.975 876.47 288.975C826.641 288.975 786 298.169 786 309.442C786 320.715 826.641 329.909 876.47 329.909Z" fill="#A38B5B"/>
<path fill-rule="evenodd" clip-rule="evenodd" d="M910.667 317.761C930.14 317.761 946.832 314.465 953.89 309.775C956.815 308.054 958.794 304.762 958.794 300.98C958.794 295.422 954.514 290.913 949.239 290.913C946.076 290.913 943.274 292.534 941.533 295.024C933.293 293.019 922.493 291.803 910.665 291.803C898.927 291.803 888.199 293.002 879.982 294.98C878.24 292.513 875.452 290.913 872.31 290.913C867.033 290.913 862.753 295.422 862.753 300.98C862.753 302.87 863.248 304.638 864.108 306.149C866.576 312.675 886.478 317.761 910.667 317.761Z" fill="white"/>
<path fill-rule="evenodd" clip-rule="evenodd" d="M958.752 300.033C944.292 307.698 927.958 312.019 910.667 312.019C893.456 312.019 877.199 307.738 862.788 300.139C863.194 294.974 867.303 290.913 872.31 290.913C875.452 290.913 878.241 292.513 879.982 294.98C888.199 293.002 898.927 291.803 910.665 291.803C922.491 291.803 933.293 293.02 941.533 295.024C943.274 292.532 946.076 290.913 949.239 290.913C954.213 290.913 958.299 294.918 958.752 300.033Z" fill="#E6E6E6"/>
<path fill-rule="evenodd" clip-rule="evenodd" d="M1008.91 203.704C1008.96 205.133 1009 206.564 1009 208.008C1009 264.092 964.977 309.558 910.674 309.558C856.372 309.558 812.349 264.094 812.349 208.008C812.349 206.566 812.385 205.133 812.443 203.704H1008.91Z" fill="#E6E6E6"/>
<path fill-rule="evenodd" clip-rule="evenodd" d="M1008.91 203.704C1008.97 205.133 1009 206.564 1009 208.008C1009 264.092 967.409 309.558 916.106 309.558C864.8 309.558 823.211 264.094 823.211 208.008C823.211 206.566 823.246 205.133 823.3 203.704H1008.91Z" fill="white"/>
<path d="M910.676 225.722C964.935 225.722 1008.92 215.755 1008.92 203.461C1008.92 191.166 964.935 181.2 910.676 181.2C856.418 181.2 812.432 191.166 812.432 203.461C812.432 215.755 856.418 225.722 910.676 225.722Z" fill="white"/>
<path d="M910.676 221.332C960.984 221.332 1001.77 213.331 1001.77 203.461C1001.77 193.591 960.984 185.59 910.676 185.59C860.369 185.59 819.586 193.591 819.586 203.461C819.586 213.331 860.369 221.332 910.676 221.332Z" fill="#E6E6E6"/>
<path fill-rule="evenodd" clip-rule="evenodd" d="M998.185 208.437C987.201 215.886 952.184 221.332 910.676 221.332C869.171 221.332 834.152 215.886 823.168 208.437C834.152 200.989 869.171 195.542 910.676 195.542C952.184 195.542 987.201 200.989 998.185 208.437Z" fill="#A17E6F"/>
<path fill-rule="evenodd" clip-rule="evenodd" d="M957.493 204.961C959.947 204.961 961.949 204.418 961.949 203.749C961.949 203.083 959.947 202.538 957.493 202.538C955.04 202.538 953.038 203.081 953.038 203.749C953.038 204.418 955.04 204.961 957.493 204.961Z" fill="#5C3D30"/>
<path fill-rule="evenodd" clip-rule="evenodd" d="M951.444 202.519C953.255 202.519 954.732 202.118 954.732 201.626C954.732 201.133 953.255 200.732 951.444 200.732C949.632 200.732 948.156 201.133 948.156 201.626C948.156 202.116 949.634 202.519 951.444 202.519Z" fill="#5C3D30"/>
<path fill-rule="evenodd" clip-rule="evenodd" d="M949.337 204.549C950.847 204.549 952.08 204.214 952.08 203.804C952.08 203.394 950.847 203.058 949.337 203.058C947.824 203.058 946.591 203.394 946.591 203.804C946.591 204.214 947.826 204.549 949.337 204.549Z" fill="#5C3D30"/>
<path fill-rule="evenodd" clip-rule="evenodd" d="M943.889 199.492C945.4 199.492 946.633 199.157 946.633 198.747C946.633 198.337 945.4 198.002 943.889 198.002C942.377 198.002 941.144 198.337 941.144 198.747C941.144 199.157 942.377 199.492 943.889 199.492Z" fill="#5C3D30"/>
<path fill-rule="evenodd" clip-rule="evenodd" d="M937.613 200.852C939.424 200.852 940.901 200.451 940.901 199.959C940.901 199.466 939.424 199.065 937.613 199.065C935.801 199.065 934.325 199.466 934.325 199.959C934.325 200.451 935.801 200.852 937.613 200.852Z" fill="#5C3D30"/>
<path fill-rule="evenodd" clip-rule="evenodd" d="M982.658 206.336C984.171 206.336 985.404 206.001 985.404 205.59C985.404 205.18 984.171 204.845 982.658 204.845C981.146 204.845 979.913 205.18 979.913 205.59C979.915 206.001 981.148 206.336 982.658 206.336Z" fill="#5C3D30"/>
<path fill-rule="evenodd" clip-rule="evenodd" d="M988.394 208.89C990.848 208.89 992.85 208.347 992.85 207.679C992.85 207.012 990.848 206.467 988.394 206.467C985.941 206.467 983.939 207.01 983.939 207.679C983.939 208.347 985.941 208.89 988.394 208.89Z" fill="#5C3D30"/>
<path fill-rule="evenodd" clip-rule="evenodd" d="M979.117 209.068C980.928 209.068 982.404 208.668 982.404 208.175C982.404 207.682 980.928 207.282 979.117 207.282C977.305 207.282 975.829 207.682 975.829 208.175C975.829 208.668 977.305 209.068 979.117 209.068Z" fill="#5C3D30"/>
<path fill-rule="evenodd" clip-rule="evenodd" d="M983.465 211.932C984.976 211.932 986.209 211.597 986.209 211.187C986.209 210.776 984.976 210.441 983.465 210.441C981.953 210.441 980.72 210.776 980.72 211.187C980.72 211.599 981.953 211.932 983.465 211.932Z" fill="#5C3D30"/>
<path fill-rule="evenodd" clip-rule="evenodd" d="M932.849 220.798C925.751 221.147 918.325 221.332 910.676 221.332C901.609 221.332 892.852 221.072 884.588 220.589C882.238 218.126 878.182 216.187 871.287 215.631C858.733 214.618 830.893 216.479 835.704 208.405C837.592 205.238 844.726 201.845 865.089 204.304C872.859 205.242 875.077 202.686 879.719 202.152C884.364 201.618 890.74 204.165 899.252 203.099C907.764 202.034 912.109 199.53 916.494 199.53C935.381 199.732 936.71 206.113 948.521 208.162C954.24 209.155 966.245 208.508 961.429 211.709C953.634 216.89 940.349 214.975 932.849 220.798Z" fill="#5C3D30"/>
<path fill-rule="evenodd" clip-rule="evenodd" d="M904.075 199.695C905.588 199.695 906.819 199.359 906.819 198.949C906.819 198.539 905.586 198.204 904.075 198.204C902.563 198.204 901.33 198.539 901.33 198.949C901.33 199.359 902.563 199.695 904.075 199.695Z" fill="#5C3D30"/>
<path fill-rule="evenodd" clip-rule="evenodd" d="M896.695 202.126C899.148 202.126 901.15 201.582 901.15 200.914C901.15 200.247 899.148 199.702 896.695 199.702C894.241 199.702 892.239 200.245 892.239 200.914C892.239 201.582 894.241 202.126 896.695 202.126Z" fill="#5C3D30"/>
<path fill-rule="evenodd" clip-rule="evenodd" d="M868.536 202.21C870.048 202.21 871.282 201.875 871.282 201.464C871.282 201.054 870.048 200.719 868.536 200.719C867.024 200.719 865.791 201.054 865.791 201.464C865.791 201.875 867.024 202.21 868.536 202.21Z" fill="#5C3D30"/>
<path fill-rule="evenodd" clip-rule="evenodd" d="M961.113 215.899C962.643 215.899 963.891 215.56 963.891 215.144C963.891 214.728 962.643 214.389 961.113 214.389C959.582 214.389 958.335 214.728 958.335 215.144C958.333 215.56 959.582 215.899 961.113 215.899Z" fill="#5C3D30"/>
<path fill-rule="evenodd" clip-rule="evenodd" d="M916.947 177.008C931.543 146.433 897.6 113.605 920.967 105.037C933.067 100.6 943.215 120.751 937.444 127.515C948.546 109.378 928.446 86.5067 912.769 92.4475C878.631 105.382 916.713 139.39 916.947 177.008Z" fill="white"/>
<path fill-rule="evenodd" clip-rule="evenodd" d="M946.894 149.136C948.181 143.875 942.433 137.468 935.225 139.523C930.138 140.972 928.531 146.08 925.671 157.04C926.847 146.969 922.931 135.649 932.082 132.76C942.359 129.512 951.649 139.742 946.894 149.136Z" fill="white"/>
<path fill-rule="evenodd" clip-rule="evenodd" d="M875.498 154.727C860.261 154.275 854.246 135.769 869.477 126.899C887.193 116.582 906.767 139.24 910.005 162.795C894.807 141.841 882.791 135.87 874.845 139.955C867.599 143.675 872.876 152.41 875.498 154.727Z" fill="white"/>
<path fill-rule="evenodd" clip-rule="evenodd" d="M1368.15 183.111C1349.64 127.12 1390.35 127.858 1368.15 73.4707C1410.72 123.25 1363.78 137.841 1368.15 183.111Z" fill="white"/>
<path fill-rule="evenodd" clip-rule="evenodd" d="M1413.44 339.384C1413.44 346.268 1389.81 351.851 1360.67 351.851C1331.52 351.851 1307.89 346.271 1307.89 339.384V254.562H1413.44V339.384Z" fill="#C6E6DA"/>
<path fill-rule="evenodd" clip-rule="evenodd" d="M1307.89 333.467V254.56H1413.44V333.467C1400.7 336.979 1381.78 339.205 1360.67 339.205C1339.55 339.205 1320.64 336.979 1307.89 333.467Z" fill="#B3D1C6"/>
<path fill-rule="evenodd" clip-rule="evenodd" d="M1430.16 318.459C1430.16 327.525 1399.05 334.877 1360.67 334.877C1322.29 334.877 1291.17 327.525 1291.17 318.459V206.762H1430.16V318.459Z" fill="#C6E6DA"/>
<path d="M1451.31 213.826C1468.91 213.826 1480.21 224.506 1485.19 238.181C1487.06 243.336 1488 248.885 1488 254.391C1488 259.896 1487.06 265.443 1485.19 270.598C1480.21 284.271 1468.91 294.953 1451.31 294.953V278.216C1461.47 278.216 1467.94 272.209 1470.74 264.519C1471.88 261.367 1472.46 257.898 1472.46 254.391C1472.46 250.883 1471.88 247.414 1470.74 244.262C1467.94 236.572 1461.47 230.563 1451.31 230.563V213.826ZM1451.31 294.951C1433.71 294.951 1422.41 284.268 1417.43 270.596C1415.56 265.441 1414.62 259.894 1414.62 254.388C1414.62 248.88 1415.56 243.333 1417.43 238.178C1422.41 224.506 1433.71 213.823 1451.31 213.823V230.558C1441.15 230.558 1434.68 236.565 1431.88 244.257C1430.74 247.409 1430.16 250.878 1430.16 254.386C1430.16 257.893 1430.74 261.362 1431.88 264.514C1434.68 272.204 1441.15 278.211 1451.31 278.211V294.951Z" fill="#D9FFF1"/>
<path d="M1434.52 291.034C1426.29 286.731 1420.59 279.266 1417.43 270.598C1415.56 265.443 1414.62 259.896 1414.62 254.391C1414.62 248.883 1415.56 243.336 1417.43 238.181C1420.59 229.513 1426.28 222.048 1434.52 217.745V239.098C1433.43 240.684 1432.55 242.424 1431.89 244.26C1430.74 247.412 1430.16 250.881 1430.16 254.388C1430.16 257.896 1430.74 261.365 1431.89 264.514C1432.55 266.35 1433.43 268.092 1434.52 269.677V291.034Z" fill="#C6E6DA"/>
<path fill-rule="evenodd" clip-rule="evenodd" d="M1430.16 318.459C1430.16 327.525 1399.05 334.877 1360.67 334.877C1344.24 334.877 1329.14 333.527 1317.24 331.275C1311.3 330.15 1312.25 324.475 1312.25 318.089V206.762H1430.17V318.459H1430.16Z" fill="#D9FFF1"/>
<path fill-rule="evenodd" clip-rule="evenodd" d="M1360.67 190.347C1399.05 190.347 1430.16 197.698 1430.16 206.765C1430.16 215.834 1399.05 223.183 1360.67 223.183C1322.29 223.183 1291.17 215.831 1291.17 206.765C1291.17 197.698 1322.29 190.347 1360.67 190.347Z" fill="#D9FFF1"/>
<path fill-rule="evenodd" clip-rule="evenodd" d="M1360.67 195.712C1394.01 195.712 1421.04 200.661 1421.04 206.765C1421.04 212.868 1394.01 217.817 1360.67 217.817C1327.33 217.817 1300.3 212.868 1300.3 206.765C1300.3 200.661 1327.33 195.712 1360.67 195.712Z" fill="#C6E6DA"/>
<path fill-rule="evenodd" clip-rule="evenodd" d="M1411.41 212.754C1400.66 215.8 1381.95 217.815 1360.67 217.815C1339.39 217.815 1320.68 215.797 1309.93 212.754C1320.68 209.709 1339.39 207.693 1360.67 207.693C1381.95 207.693 1400.66 209.709 1411.41 212.754Z" fill="#5C3D30"/>
<path fill-rule="evenodd" clip-rule="evenodd" d="M1397.92 215.461C1387.66 216.937 1374.73 217.817 1360.67 217.817C1339.39 217.817 1320.68 215.8 1309.93 212.754C1320.68 209.709 1339.39 207.693 1360.67 207.693C1363.58 207.693 1366.44 207.732 1369.24 207.805C1358.23 210.635 1361.72 214.189 1367.77 213.99C1373.82 213.792 1393.97 209.234 1397.92 215.461Z" fill="#A17E6F"/>
<path fill-rule="evenodd" clip-rule="evenodd" d="M1356.07 212.207C1357.97 212.207 1359.52 211.767 1359.52 211.228C1359.52 210.688 1357.97 210.248 1356.07 210.248C1354.16 210.248 1352.61 210.688 1352.61 211.228C1352.61 211.767 1354.16 212.207 1356.07 212.207Z" fill="#5C3D30"/>
<path fill-rule="evenodd" clip-rule="evenodd" d="M1348.47 210.829C1350.05 210.829 1351.35 210.461 1351.35 210.011C1351.35 209.561 1350.05 209.193 1348.47 209.193C1346.88 209.193 1345.58 209.561 1345.58 210.011C1345.58 210.461 1346.88 210.829 1348.47 210.829Z" fill="#5C3D30"/>
<path d="M1329.35 214.571C1330.94 214.571 1332.24 214.205 1332.24 213.753C1332.24 213.302 1330.94 212.936 1329.35 212.936C1327.76 212.936 1326.47 213.302 1326.47 213.753C1326.47 214.205 1327.76 214.571 1329.35 214.571Z" fill="#5C3D30"/>
<path fill-rule="evenodd" clip-rule="evenodd" d="M1324.32 213.158C1325.27 213.158 1326.04 212.938 1326.04 212.669C1326.04 212.401 1325.27 212.181 1324.32 212.181C1323.37 212.181 1322.6 212.399 1322.6 212.669C1322.6 212.94 1323.37 213.158 1324.32 213.158Z" fill="#5C3D30"/>
<path fill-rule="evenodd" clip-rule="evenodd" d="M1390.89 214.91C1391.84 214.91 1392.61 214.692 1392.61 214.421C1392.61 214.152 1391.84 213.932 1390.89 213.932C1389.95 213.932 1389.17 214.152 1389.17 214.421C1389.17 214.692 1389.95 214.91 1390.89 214.91Z" fill="#5C3D30"/>
<path fill-rule="evenodd" clip-rule="evenodd" d="M1385.53 214.626C1387.12 214.626 1388.41 214.259 1388.41 213.809C1388.41 213.359 1387.12 212.991 1385.53 212.991C1383.94 212.991 1382.64 213.359 1382.64 213.809C1382.64 214.261 1383.94 214.626 1385.53 214.626Z" fill="#5C3D30"/>
<path fill-rule="evenodd" clip-rule="evenodd" d="M1346.8 179.737C1333.12 138.354 1363.2 138.898 1346.8 98.7037C1378.26 135.495 1343.57 146.279 1346.8 179.737Z" fill="white"/>
<path fill-rule="evenodd" clip-rule="evenodd" d="M1093.29 334.382C1093.3 334.486 1093.31 334.59 1093.31 334.696C1093.31 339.897 1076.32 344.113 1055.36 344.113C1034.4 344.113 1017.4 339.897 1017.4 334.696C1017.4 334.592 1017.41 334.488 1017.43 334.384C1019.61 303.049 1035.72 278.715 1055.25 278.715C1074.78 278.715 1091.11 303.049 1093.29 334.382Z" fill="#E6E6E6"/>
<path fill-rule="evenodd" clip-rule="evenodd" d="M1093.29 334.382C1093.3 334.486 1093.31 334.59 1093.31 334.696C1093.31 339.897 1076.32 344.113 1055.36 344.113C1042.75 344.113 1031.58 342.587 1024.68 340.24C1027.22 309.567 1043.16 285.936 1062.4 285.936C1068.21 285.936 1073.73 288.089 1078.69 291.938C1086.62 302.053 1092.09 317.159 1093.29 334.382Z" fill="white"/>
<path fill-rule="evenodd" clip-rule="evenodd" d="M1056.59 276.641C1068.44 276.641 1077.93 286.88 1084.76 301.608C1068.82 316.686 1045.23 313.303 1026.69 300.037C1033.46 285.222 1044.75 276.641 1056.59 276.641Z" fill="#E6E6E6"/>
<path d="M1139.87 206.666C1155.28 206.666 1165.18 214.857 1169.54 225.341C1171.18 229.294 1172 233.548 1172 237.769C1172 241.991 1171.18 246.246 1169.54 250.199C1165.18 260.683 1155.28 268.874 1139.87 268.874V256.04C1148.77 256.04 1154.43 251.433 1156.88 245.538C1157.89 243.121 1158.39 240.461 1158.39 237.771C1158.39 235.082 1157.89 232.422 1156.88 230.005C1154.43 224.108 1148.77 219.5 1139.87 219.5V206.666ZM1139.87 268.874C1124.46 268.874 1114.56 260.681 1110.21 250.197C1108.56 246.244 1107.74 241.991 1107.74 237.769C1107.74 233.548 1108.56 229.292 1110.21 225.34C1114.56 214.856 1124.46 206.664 1139.87 206.664V219.497C1130.97 219.497 1125.31 224.104 1122.86 230.001C1121.86 232.418 1121.35 235.078 1121.35 237.767C1121.35 240.457 1121.85 243.117 1122.86 245.534C1125.31 251.431 1130.97 256.04 1139.87 256.04V268.874Z" fill="white"/>
<path d="M1116.9 260.193C1113.98 257.322 1111.75 253.903 1110.21 250.199C1108.56 246.246 1107.74 241.993 1107.74 237.771C1107.74 233.548 1108.57 229.294 1110.21 225.341C1113.45 217.538 1119.76 211.007 1129.13 208.176C1128.73 213.515 1128.1 218.742 1127.26 223.832C1125.3 225.553 1123.83 227.677 1122.86 230.003C1121.86 232.42 1121.35 235.08 1121.35 237.769C1121.35 240.121 1121.74 242.449 1122.51 244.614C1120.88 250.06 1119 255.265 1116.9 260.193Z" fill="#E6E6E6"/>
<path fill-rule="evenodd" clip-rule="evenodd" d="M1055.16 309.925C1091.48 309.925 1121.83 264.519 1125.71 206.154H985C988.882 264.519 1018.84 309.925 1055.16 309.925Z" fill="#E6E6E6"/>
<path fill-rule="evenodd" clip-rule="evenodd" d="M1060.01 309.649C1094.39 309.649 1122.01 261.898 1125.71 206.152H994.701C998.407 261.898 1022.84 309.649 1060.01 309.649Z" fill="white"/>
<path d="M1055.36 223.611C1094.21 223.611 1125.71 215.795 1125.71 206.154C1125.71 196.513 1094.21 188.698 1055.36 188.698C1016.5 188.698 985.002 196.513 985.002 206.154C985.002 215.795 1016.5 223.611 1055.36 223.611Z" fill="white"/>
<path fill-rule="evenodd" clip-rule="evenodd" d="M1055.36 217.738C1088.9 217.738 1116.25 212.533 1116.25 206.154C1116.25 199.773 1088.9 194.57 1055.36 194.57C1021.82 194.57 994.469 199.773 994.469 206.154C994.469 212.535 1021.82 217.738 1055.36 217.738Z" fill="#E6E6E6"/>
<path fill-rule="evenodd" clip-rule="evenodd" d="M1055.36 217.738C1084.4 217.738 1108.69 213.871 1114.78 208.694C1108.69 203.518 1084.4 199.651 1055.36 199.651C1026.32 199.651 1002.03 203.518 995.94 208.694C1002.03 213.871 1026.32 217.738 1055.36 217.738Z" fill="#5C3D30"/>
<path fill-rule="evenodd" clip-rule="evenodd" d="M1055.36 217.738C1075.33 217.738 1093.05 215.909 1104.16 213.082C1098.81 206.427 1085.69 210.124 1080.29 212.839C1073.85 216.08 1063.97 213.244 1057.1 210.409C1050.22 207.573 1039.27 211.22 1033.68 213.042C1028.1 214.863 1018.65 210.814 1032.18 207.573C1045.71 204.335 1036.73 200.207 1019.73 201.84C1007.88 203.468 999.238 205.889 995.94 208.694C1002.03 213.871 1026.32 217.738 1055.36 217.738Z" fill="#A17E6F"/>
<path fill-rule="evenodd" clip-rule="evenodd" d="M1027.81 204.333C1029.56 204.333 1030.99 203.978 1030.99 203.544C1030.99 203.11 1029.56 202.756 1027.81 202.756C1026.06 202.756 1024.64 203.11 1024.64 203.544C1024.64 203.98 1026.06 204.333 1027.81 204.333Z" fill="#5C3D30"/>
<path fill-rule="evenodd" clip-rule="evenodd" d="M1023.1 205.742C1024.39 205.742 1025.45 205.481 1025.45 205.16C1025.45 204.839 1024.39 204.578 1023.1 204.578C1021.81 204.578 1020.75 204.839 1020.75 205.16C1020.75 205.481 1021.81 205.742 1023.1 205.742Z" fill="#5C3D30"/>
<path fill-rule="evenodd" clip-rule="evenodd" d="M1006.29 208.998C1007.58 208.998 1008.64 208.736 1008.64 208.415C1008.64 208.094 1007.58 207.833 1006.29 207.833C1004.99 207.833 1003.94 208.094 1003.94 208.415C1003.94 208.736 1004.99 208.998 1006.29 208.998Z" fill="#5C3D30"/>
<path fill-rule="evenodd" clip-rule="evenodd" d="M1052.55 214.683C1053.48 214.683 1054.24 214.494 1054.24 214.264C1054.24 214.032 1053.48 213.843 1052.55 213.843C1051.62 213.843 1050.86 214.032 1050.86 214.264C1050.85 214.494 1051.62 214.683 1052.55 214.683Z" fill="#5C3D30"/>
<path d="M1049.06 212.63C1050.82 212.63 1052.24 212.277 1052.24 211.841C1052.24 211.406 1050.82 211.053 1049.06 211.053C1047.31 211.053 1045.88 211.406 1045.88 211.841C1045.88 212.277 1047.31 212.63 1049.06 212.63Z" fill="#5C3D30"/>
<path fill-rule="evenodd" clip-rule="evenodd" d="M1044.28 214.112C1045.57 214.112 1046.63 213.85 1046.63 213.529C1046.63 213.208 1045.57 212.947 1044.28 212.947C1042.98 212.947 1041.93 213.208 1041.93 213.529C1041.93 213.85 1042.98 214.112 1044.28 214.112Z" fill="#5C3D30"/>
<path fill-rule="evenodd" clip-rule="evenodd" d="M1097.55 211.828C1098.85 211.828 1099.9 211.567 1099.9 211.246C1099.9 210.925 1098.85 210.664 1097.55 210.664C1096.26 210.664 1095.2 210.925 1095.2 211.246C1095.2 211.567 1096.26 211.828 1097.55 211.828Z" fill="#5C3D30"/>
<path fill-rule="evenodd" clip-rule="evenodd" d="M1090.08 215.197C1091.83 215.197 1093.26 214.843 1093.26 214.409C1093.26 213.975 1091.83 213.62 1090.08 213.62C1088.33 213.62 1086.9 213.975 1086.9 214.409C1086.9 214.845 1088.33 215.197 1090.08 215.197Z" fill="#5C3D30"/>
<path fill-rule="evenodd" clip-rule="evenodd" d="M1091.29 212.4C1092.23 212.4 1092.99 212.211 1092.99 211.979C1092.99 211.747 1092.23 211.559 1091.29 211.559C1090.36 211.559 1089.6 211.749 1089.6 211.979C1089.6 212.211 1090.36 212.4 1091.29 212.4Z" fill="#5C3D30"/>
<path fill-rule="evenodd" clip-rule="evenodd" d="M1027.27 169.383C1013.73 166.802 1011.11 150.835 1026.04 145.812C1043.4 139.969 1059.08 160.629 1056.9 180.97C1048.98 159.813 1037.77 151.909 1027.83 154.478C1019.4 156.656 1025.27 167.114 1027.27 169.383Z" fill="white"/>
<path fill-rule="evenodd" clip-rule="evenodd" d="M1068.33 106.503C1049.23 133.598 1079.05 151.709 1062.03 182.128C1064.21 147.851 1033.55 132.832 1068.33 106.503Z" fill="white"/>
<path d="M728.828 347.504C775.125 347.504 812.656 338.772 812.656 328.002C812.656 317.231 775.125 308.5 728.828 308.5C682.531 308.5 645 317.231 645 328.002C645 338.772 682.531 347.504 728.828 347.504Z" fill="#A38B5B"/>
<path fill-rule="evenodd" clip-rule="evenodd" d="M753.338 309.265C796.663 309.265 833.541 313.645 833.049 323.725C832.844 327.912 830.669 331.084 828.589 332.725C819.004 340.296 788.94 345.824 753.338 345.824C722.641 345.824 696.062 341.714 683.177 335.73C677.877 333.269 673.456 329.216 673.627 323.727C673.941 313.637 710.012 309.265 753.338 309.265Z" fill="#F0F0BD"/>
<path fill-rule="evenodd" clip-rule="evenodd" d="M753.338 305.151C797.361 305.151 833.049 313.468 833.049 323.725C833.049 333.983 797.361 342.299 753.338 342.299C709.315 342.299 673.627 333.983 673.627 323.725C673.626 313.468 709.314 305.151 753.338 305.151Z" fill="#FFFFE8"/>
<path fill-rule="evenodd" clip-rule="evenodd" d="M753.338 314.365C774.702 314.365 792.023 318.4 792.023 323.38C792.023 328.357 774.704 332.394 753.338 332.394C731.972 332.394 714.653 328.359 714.653 323.38C714.653 318.402 731.972 314.365 753.338 314.365Z" fill="#E0E0AC"/>
<path fill-rule="evenodd" clip-rule="evenodd" d="M710.644 250.225H795.874C795.959 250.225 796.029 250.299 796.029 250.389V304.209C796.029 314.42 788.949 322.96 779.745 324.568C773.316 326.28 763.87 327.364 753.338 327.364C742.805 327.364 733.359 326.281 726.93 324.568C717.726 322.96 710.646 314.421 710.646 304.209L710.644 250.225Z" fill="#F0F0BD"/>
<path d="M810.278 253.264C822.137 253.264 829.752 260.364 833.105 269.451C834.369 272.877 835 276.563 835 280.223C835 283.882 834.367 287.568 833.105 290.995C829.752 300.082 822.137 307.181 810.278 307.181V296.057C817.125 296.057 821.483 292.065 823.368 286.954C824.14 284.859 824.528 282.554 824.528 280.223C824.528 277.891 824.142 275.586 823.368 273.491C821.483 268.38 817.125 264.386 810.278 264.386V253.264ZM810.278 307.181C798.419 307.181 790.803 300.082 787.452 290.995C786.188 287.568 785.555 283.882 785.555 280.223C785.555 276.562 786.188 272.875 787.452 269.449C790.803 260.362 798.419 253.264 810.278 253.264V264.386C803.431 264.386 799.073 268.377 797.188 273.489C796.415 275.584 796.029 277.89 796.029 280.221C796.029 282.552 796.415 284.858 797.188 286.953C799.073 292.064 803.431 296.056 810.278 296.056V307.181Z" fill="#FFFFCC"/>
<path d="M798.189 304.159C793.057 301.247 789.477 296.483 787.452 290.995C786.188 287.568 785.555 283.882 785.555 280.223C785.555 276.562 786.188 272.875 787.452 269.449C789.479 263.952 793.068 259.184 798.21 256.274V271.264C797.814 271.975 797.471 272.719 797.188 273.489C796.415 275.584 796.029 277.89 796.029 280.221C796.029 282.552 796.415 284.858 797.188 286.953C797.473 287.723 797.814 288.469 798.21 289.178V303.101C798.21 303.458 798.203 303.81 798.189 304.159Z" fill="#F0F0BD"/>
<path fill-rule="evenodd" clip-rule="evenodd" d="M796.029 250.204V304.209C796.029 315.553 788.687 322.865 778.187 324.957C762.775 328.024 745.914 328.355 730.575 325.407C729.316 325.164 725.745 321.852 724.944 320.868C722.004 317.251 720.219 312.545 720.219 307.419V253.436L796.029 250.204Z" fill="#FFFFCC"/>
<path fill-rule="evenodd" clip-rule="evenodd" d="M753.338 240.256C776.915 240.256 796.03 244.711 796.03 250.203C796.03 255.696 776.917 260.151 753.338 260.151C729.759 260.151 710.646 255.698 710.646 250.203C710.646 244.711 729.759 240.256 753.338 240.256Z" fill="#FFFFCC"/>
<path fill-rule="evenodd" clip-rule="evenodd" d="M753.338 243.551C773.251 243.551 789.394 246.529 789.394 250.204C789.394 253.878 773.251 256.857 753.338 256.857C733.426 256.857 717.282 253.878 717.282 250.204C717.282 246.531 733.424 243.551 753.338 243.551Z" fill="#F0F0BD"/>
<path fill-rule="evenodd" clip-rule="evenodd" d="M785.154 253.336C779.083 255.431 767.114 256.857 753.338 256.857C739.561 256.857 727.591 255.431 721.521 253.336C727.591 251.241 739.561 249.815 753.338 249.815C767.114 249.815 779.083 251.241 785.154 253.336Z" fill="#5C3D30"/>
<path fill-rule="evenodd" clip-rule="evenodd" d="M785.154 253.336C783.213 254.005 780.668 254.606 777.656 255.116C779.18 254.288 779.917 253.587 779.478 253.161C777.992 251.714 763.988 252.372 761.013 251.714C758.04 251.056 747.133 251.714 743.663 252.635C741.438 253.227 737.224 252.518 735.207 250.717C740.533 250.145 746.726 249.815 753.337 249.815C767.114 249.815 779.083 251.241 785.154 253.336Z" fill="#A17E6F"/>
<path fill-rule="evenodd" clip-rule="evenodd" d="M740.586 252.386C741.197 252.386 741.695 252.246 741.695 252.076C741.695 251.905 741.197 251.766 740.586 251.766C739.974 251.766 739.476 251.904 739.476 252.076C739.476 252.246 739.974 252.386 740.586 252.386Z" fill="#5C3D30"/>
<path fill-rule="evenodd" clip-rule="evenodd" d="M743.258 251.773C744.245 251.773 745.05 251.548 745.05 251.274C745.05 250.999 744.245 250.772 743.258 250.772C742.271 250.772 741.467 250.997 741.467 251.274C741.467 251.55 742.271 251.773 743.258 251.773Z" fill="#5C3D30"/>
<path fill-rule="evenodd" clip-rule="evenodd" d="M764.596 251.563C765.208 251.563 765.706 251.423 765.706 251.253C765.706 251.082 765.208 250.942 764.596 250.942C763.985 250.942 763.487 251.082 763.487 251.253C763.487 251.423 763.985 251.563 764.596 251.563Z" fill="#5C3D30"/>
<path fill-rule="evenodd" clip-rule="evenodd" d="M723.179 208.39C720.125 203.08 723.507 194.089 731.844 193.811C737.725 193.615 745.631 196.459 750.588 208.139C749.146 196.335 743.78 185.472 733.109 185.515C721.123 185.565 715.11 199.769 723.179 208.39Z" fill="white"/>
<path fill-rule="evenodd" clip-rule="evenodd" d="M751.688 231.717C791.227 190.864 731.335 181.729 751.688 132.528C712.644 177.563 773.641 187.222 751.688 231.717Z" fill="white"/>
<path d="M420.051 366.801C465.919 366.801 503.103 359.043 503.103 349.473C503.103 339.903 465.919 332.145 420.051 332.145C374.183 332.145 337 339.903 337 349.473C337 359.043 374.183 366.801 420.051 366.801Z" fill="#A38B5B"/>
<path fill-rule="evenodd" clip-rule="evenodd" d="M499.567 347.359C499.567 354.136 473.278 359.63 440.848 359.63C408.418 359.63 382.126 354.136 382.126 347.359V221.912H499.567V347.359Z" fill="#C5F0F0"/>
<path d="M499.567 242.119C514.421 242.119 523.769 252.407 527.724 265.577C529.138 270.284 529.845 275.361 529.845 280.41C529.845 285.459 529.137 290.536 527.724 295.243C523.769 308.412 514.421 318.701 499.567 318.701V306.483C507.624 306.483 512.939 300.089 515.398 291.904C516.478 288.307 517.018 284.373 517.018 280.41C517.018 276.447 516.478 272.512 515.398 268.916C512.939 260.731 507.623 254.337 499.567 254.337V242.119ZM499.567 318.701C484.713 318.701 475.366 308.414 471.411 295.245C469.996 290.537 469.288 285.46 469.288 280.411C469.288 275.363 469.996 270.286 471.411 265.578C475.367 252.409 484.715 242.119 499.567 242.119V254.337C491.51 254.337 486.195 260.733 483.737 268.917C482.657 272.512 482.117 276.448 482.117 280.411C482.117 284.374 482.657 288.309 483.737 291.906C486.195 300.09 491.512 306.483 499.567 306.483V318.701Z" fill="#E5FFFF"/>
<path d="M499.567 242.119C500.851 242.119 502.095 242.198 503.298 242.348V254.832C502.128 254.51 500.884 254.338 499.567 254.338C491.51 254.338 486.195 260.733 483.735 268.917C482.655 272.512 482.115 276.448 482.115 280.411C482.115 284.374 482.655 288.309 483.735 291.906C486.194 300.09 491.51 306.485 499.567 306.485C500.884 306.485 502.128 306.314 503.298 305.991V318.475C502.095 318.625 500.851 318.703 499.567 318.703C484.713 318.703 475.366 308.414 471.411 295.245C469.996 290.537 469.288 285.46 469.288 280.411C469.288 275.363 469.996 270.286 471.411 265.578C475.366 252.407 484.715 242.119 499.567 242.119Z" fill="#E6E6E6"/>
<path fill-rule="evenodd" clip-rule="evenodd" d="M499.567 347.359C499.567 354.136 473.278 359.63 440.848 359.63C426.964 359.63 414.206 358.621 404.155 356.939C399.128 356.097 399.937 351.857 399.937 347.083V221.912H499.567V347.359Z" fill="#E5FFFF"/>
<path fill-rule="evenodd" clip-rule="evenodd" d="M440.848 234.184C473.19 234.184 499.569 228.67 499.569 221.912C499.569 215.153 473.191 209.64 440.848 209.64C408.506 209.64 382.126 215.153 382.126 221.912C382.126 228.67 408.506 234.184 440.848 234.184Z" fill="#E5FFFF"/>
<path fill-rule="evenodd" clip-rule="evenodd" d="M440.848 230.173C469.188 230.173 492.301 226.461 492.301 221.912C492.301 217.361 469.188 213.651 440.848 213.651C412.508 213.651 389.394 217.361 389.394 221.912C389.394 226.463 412.508 230.173 440.848 230.173Z" fill="#C5F0F0"/>
<path fill-rule="evenodd" clip-rule="evenodd" d="M484.092 226.389C474.929 228.666 458.984 230.173 440.846 230.173C422.708 230.173 406.763 228.666 397.6 226.389C406.763 224.113 422.708 222.606 440.846 222.606C458.984 222.606 474.929 224.113 484.092 226.389Z" fill="#5C3D30"/>
<path fill-rule="evenodd" clip-rule="evenodd" d="M460.055 229.54C454.022 229.949 447.402 230.173 440.457 230.173C422.482 230.173 406.681 228.666 397.602 226.389C406.681 224.113 422.482 222.606 440.457 222.606C443.919 222.606 447.299 222.661 450.566 222.769C454.847 222.945 453.194 224.513 445.895 224.302C438.585 224.091 423.852 225.356 425.94 226.937C428.029 228.519 458.088 226.135 460.055 229.54Z" fill="#A17E6F"/>
<path d="M425.105 225.266C426.718 225.266 428.025 224.942 428.025 224.541C428.025 224.141 426.718 223.816 425.105 223.816C423.492 223.816 422.185 224.141 422.185 224.541C422.185 224.942 423.492 225.266 425.105 225.266Z" fill="#5C3D30"/>
<path fill-rule="evenodd" clip-rule="evenodd" d="M430.964 224.89C432.034 224.89 432.907 224.673 432.907 224.407C432.907 224.14 432.034 223.923 430.964 223.923C429.895 223.923 429.021 224.14 429.021 224.407C429.022 224.673 429.895 224.89 430.964 224.89Z" fill="#5C3D30"/>
<path fill-rule="evenodd" clip-rule="evenodd" d="M448.9 229.446C449.969 229.446 450.842 229.229 450.842 228.963C450.842 228.697 449.969 228.48 448.9 228.48C447.831 228.48 446.956 228.697 446.956 228.963C446.958 229.228 447.831 229.446 448.9 229.446Z" fill="#5C3D30"/>
<path fill-rule="evenodd" clip-rule="evenodd" d="M411.994 227.686C413.065 227.686 413.936 227.469 413.936 227.203C413.936 226.937 413.063 226.72 411.994 226.72C410.925 226.72 410.051 226.937 410.051 227.203C410.052 227.468 410.925 227.686 411.994 227.686Z" fill="#5C3D30"/>
<path fill-rule="evenodd" clip-rule="evenodd" d="M448.735 204.77C407.728 166.77 469.844 158.273 448.735 112.509C489.229 154.398 425.967 163.383 448.735 204.77Z" fill="white"/>
<path fill-rule="evenodd" clip-rule="evenodd" d="M430.76 158.017C437.389 144.236 447.536 131.447 437.262 120.387C425.721 107.964 404.383 112.316 401.255 127.532C398.55 140.695 414.757 148.967 414.757 148.967C414.757 148.967 405.921 141.341 409.397 130.716C411.93 122.974 421.127 122.069 427.52 126.203C434.594 130.777 435.791 141.744 430.76 158.017Z" fill="white"/>
<path fill-rule="evenodd" clip-rule="evenodd" d="M476.889 184.55C479.19 179.193 474.329 171.469 465.751 172.523C459.699 173.268 453.783 177.494 448.786 188.626C451.714 178.173 452.235 166.742 463.167 165.104C475.447 163.266 483.811 175.366 476.889 184.55Z" fill="white"/>
<path d="M240.93 348.966C287.835 348.966 325.859 341.192 325.859 331.601C325.859 322.011 287.835 314.236 240.93 314.236C194.024 314.236 156 322.011 156 331.601C156 341.192 194.024 348.966 240.93 348.966Z" fill="#A38B5B"/>
<path fill-rule="evenodd" clip-rule="evenodd" d="M312.486 329.841C306.994 334.875 288.289 338.585 266.055 338.585C243.544 338.585 224.648 334.783 219.424 329.652H219.419C183.293 296.526 172.559 261.83 164.969 193.345L367.154 193.265C359.565 261.748 348.615 296.715 312.491 329.841H312.486Z" fill="#E6E6E6"/>
<path d="M362.062 231.229C361.149 235.6 356.612 238.451 351.929 237.598C347.246 236.746 344.192 232.51 345.105 228.139C347.827 215.262 358.315 206.958 370.235 204.491C375.204 203.462 380.406 203.445 385.37 204.532C390.427 205.637 395.288 207.88 399.485 211.355C409.554 219.693 415.491 234.922 409.763 258.063C404.469 279.444 391.82 290.579 378.773 293.973C373.397 295.371 367.958 295.447 362.881 294.373C357.747 293.286 352.99 291.025 349.044 287.765C340.182 280.446 335.456 268.301 339.943 253.499C341.23 249.216 345.994 246.716 350.582 247.918C355.17 249.12 357.848 253.567 356.561 257.852C354.103 265.959 356.224 272.224 360.46 275.722C362.214 277.172 364.349 278.183 366.664 278.672C369.034 279.173 371.606 279.13 374.178 278.46C381.748 276.49 389.309 269.141 392.942 254.468C396.998 238.091 393.862 228.195 388.068 223.398C386.138 221.8 383.856 220.757 381.453 220.233C378.96 219.687 376.381 219.689 373.952 220.192C368.292 221.365 363.328 225.243 362.062 231.229Z" fill="white"/>
<path d="M362.062 231.229C361.149 235.6 356.612 238.451 351.929 237.598C347.246 236.744 344.192 232.51 345.107 228.139C347.829 215.262 358.315 206.958 370.237 204.491C370.556 204.425 370.875 204.363 371.195 204.306C370.416 210.556 369.593 216.515 368.708 222.203C365.429 224.14 362.912 227.209 362.062 231.229ZM349.676 288.277C349.462 288.11 349.251 287.94 349.044 287.767C340.182 280.448 335.456 268.303 339.943 253.501C341.23 249.218 345.994 246.718 350.582 247.92C355.17 249.122 357.848 253.569 356.561 257.854C354.93 263.229 355.315 267.795 356.994 271.283C354.834 277.265 352.411 282.903 349.676 288.277Z" fill="#E6E6E6"/>
<path fill-rule="evenodd" clip-rule="evenodd" d="M312.487 329.841C307.777 334.158 293.351 337.5 275.315 338.365C257.022 337.488 242.444 334.06 237.954 329.652H237.95C201.826 296.526 191.09 261.83 183.5 193.345L367.152 193.273C359.563 261.754 348.61 296.717 312.487 329.841Z" fill="white"/>
<path fill-rule="evenodd" clip-rule="evenodd" d="M266.055 217.029C321.793 217.029 367.251 205.861 367.251 192.17C367.251 178.48 321.793 167.312 266.055 167.312C210.318 167.312 164.859 178.478 164.859 192.17C164.862 205.861 210.32 217.029 266.055 217.029Z" fill="white"/>
<path fill-rule="evenodd" clip-rule="evenodd" d="M266.055 211.138C317.066 211.138 358.671 202.617 358.671 192.17C358.671 181.723 317.066 173.203 266.055 173.203C215.045 173.203 173.439 181.723 173.439 192.17C173.439 202.617 215.045 211.138 266.055 211.138Z" fill="#E6E6E6"/>
<path fill-rule="evenodd" clip-rule="evenodd" d="M345.332 201.983C329.103 207.469 299.671 211.138 266.055 211.138C232.44 211.138 203.008 207.469 186.779 201.983C203.008 196.494 232.44 192.828 266.055 192.828C299.671 192.828 329.103 196.494 345.332 201.983Z" fill="#5C3D30"/>
<path fill-rule="evenodd" clip-rule="evenodd" d="M345.332 201.983C340.213 203.714 333.783 205.263 326.323 206.573C324.259 203.365 321.592 200.986 319.066 199.807C310.475 195.798 280.742 195.49 271.821 197.34C262.9 199.191 248.033 201.042 240.434 199.807C232.836 198.573 211.691 200.734 203.906 206.235C197.245 205 191.462 203.566 186.779 201.985C203.008 196.498 232.44 192.83 266.055 192.83C299.671 192.826 329.103 196.494 345.332 201.983Z" fill="#A17E6F"/>
<path fill-rule="evenodd" clip-rule="evenodd" d="M332.146 202.566C334.818 202.566 336.996 202.032 336.996 201.375C336.996 200.719 334.818 200.183 332.146 200.183C329.475 200.183 327.296 200.717 327.296 201.375C327.298 202.032 329.475 202.566 332.146 202.566Z" fill="#5C3D30"/>
<path fill-rule="evenodd" clip-rule="evenodd" d="M268.196 195.779C269.972 195.779 271.42 195.424 271.42 194.986C271.42 194.549 269.972 194.194 268.196 194.194C266.421 194.194 264.97 194.549 264.97 194.986C264.97 195.424 266.418 195.779 268.196 195.779Z" fill="#5C3D30"/>
<path fill-rule="evenodd" clip-rule="evenodd" d="M328.412 204.961C330.188 204.961 331.638 204.604 331.638 204.168C331.638 203.733 330.19 203.375 328.412 203.375C326.636 203.375 325.186 203.731 325.186 204.168C325.186 204.606 326.634 204.961 328.412 204.961Z" fill="#5C3D30"/>
<path fill-rule="evenodd" clip-rule="evenodd" d="M257.194 198.162C259.865 198.162 262.041 197.626 262.041 196.971C262.041 196.315 259.863 195.779 257.194 195.779C254.522 195.779 252.344 196.313 252.344 196.971C252.344 197.626 254.522 198.162 257.194 198.162Z" fill="#5C3D30"/>
<path fill-rule="evenodd" clip-rule="evenodd" d="M202.625 203.291C204.401 203.291 205.851 202.936 205.851 202.498C205.851 202.061 204.401 201.705 202.625 201.705C200.849 201.705 199.399 202.061 199.399 202.498C199.399 202.936 200.849 203.291 202.625 203.291Z" fill="#5C3D30"/>
<path fill-rule="evenodd" clip-rule="evenodd" d="M324.501 126.314C350.826 114.286 347.103 80.5393 313.609 77.8135C274.648 74.642 254.247 124.466 270.304 164.699C274.499 117.751 293.014 96.0784 314.865 96.3146C333.403 96.5179 327.309 120.703 324.501 126.314Z" fill="white"/>
<path fill-rule="evenodd" clip-rule="evenodd" d="M259.22 151.306C234.497 97.775 299.032 67.4055 286.496 32.4307C273.108 68.5968 206.1 94.431 259.22 151.306Z" fill="white"/>
<path d="M240.93 348.966C287.835 348.966 325.859 341.192 325.859 331.601C325.859 322.011 287.835 314.236 240.93 314.236C194.024 314.236 156 322.011 156 331.601C156 341.192 194.024 348.966 240.93 348.966Z" fill="#A38B5B"/>
<path fill-rule="evenodd" clip-rule="evenodd" d="M312.486 329.841C306.994 334.875 288.289 338.585 266.055 338.585C243.544 338.585 224.648 334.783 219.424 329.652H219.419C183.293 296.526 172.559 261.83 164.969 193.345L367.154 193.265C359.565 261.748 348.615 296.715 312.491 329.841H312.486Z" fill="#E6E6E6"/>
<path d="M362.062 231.229C361.149 235.6 356.612 238.451 351.929 237.598C347.246 236.746 344.192 232.51 345.105 228.139C347.827 215.262 358.315 206.958 370.235 204.491C375.204 203.462 380.406 203.445 385.37 204.532C390.427 205.637 395.288 207.88 399.485 211.355C409.554 219.693 415.491 234.922 409.763 258.063C404.469 279.444 391.82 290.579 378.773 293.973C373.397 295.371 367.958 295.447 362.881 294.373C357.747 293.286 352.99 291.025 349.044 287.765C340.182 280.446 335.456 268.301 339.943 253.499C341.23 249.216 345.994 246.716 350.582 247.918C355.17 249.12 357.848 253.567 356.561 257.852C354.103 265.959 356.224 272.224 360.46 275.722C362.214 277.172 364.349 278.183 366.664 278.672C369.034 279.173 371.606 279.13 374.178 278.46C381.748 276.49 389.309 269.141 392.942 254.468C396.998 238.091 393.862 228.195 388.068 223.398C386.138 221.8 383.856 220.757 381.453 220.233C378.96 219.687 376.381 219.689 373.952 220.192C368.292 221.365 363.328 225.243 362.062 231.229Z" fill="white"/>
<path d="M362.062 231.229C361.149 235.6 356.612 238.451 351.929 237.598C347.246 236.744 344.192 232.51 345.107 228.139C347.829 215.262 358.315 206.958 370.237 204.491C370.556 204.425 370.875 204.363 371.195 204.306C370.416 210.556 369.593 216.515 368.708 222.203C365.429 224.14 362.912 227.209 362.062 231.229ZM349.676 288.277C349.462 288.11 349.251 287.94 349.044 287.767C340.182 280.448 335.456 268.303 339.943 253.501C341.23 249.218 345.994 246.718 350.582 247.92C355.17 249.122 357.848 253.569 356.561 257.854C354.93 263.229 355.315 267.795 356.994 271.283C354.834 277.265 352.411 282.903 349.676 288.277Z" fill="#E6E6E6"/>
<path fill-rule="evenodd" clip-rule="evenodd" d="M312.487 329.841C307.777 334.158 293.351 337.5 275.315 338.365C257.022 337.488 242.444 334.06 237.954 329.652H237.95C201.826 296.526 191.09 261.83 183.5 193.345L367.152 193.273C359.563 261.754 348.61 296.717 312.487 329.841Z" fill="white"/>
<path fill-rule="evenodd" clip-rule="evenodd" d="M266.055 217.029C321.793 217.029 367.251 205.861 367.251 192.17C367.251 178.48 321.793 167.312 266.055 167.312C210.318 167.312 164.859 178.478 164.859 192.17C164.862 205.861 210.32 217.029 266.055 217.029Z" fill="white"/>
<path fill-rule="evenodd" clip-rule="evenodd" d="M266.055 211.138C317.066 211.138 358.671 202.617 358.671 192.17C358.671 181.723 317.066 173.203 266.055 173.203C215.045 173.203 173.439 181.723 173.439 192.17C173.439 202.617 215.045 211.138 266.055 211.138Z" fill="#E6E6E6"/>
<path fill-rule="evenodd" clip-rule="evenodd" d="M345.332 201.983C329.103 207.469 299.671 211.138 266.055 211.138C232.44 211.138 203.008 207.469 186.779 201.983C203.008 196.494 232.44 192.828 266.055 192.828C299.671 192.828 329.103 196.494 345.332 201.983Z" fill="#5C3D30"/>
<path fill-rule="evenodd" clip-rule="evenodd" d="M345.332 201.983C340.213 203.714 333.783 205.263 326.323 206.573C324.259 203.365 321.592 200.986 319.066 199.807C310.475 195.798 280.742 195.49 271.821 197.34C262.9 199.191 248.033 201.042 240.434 199.807C232.836 198.573 211.691 200.734 203.906 206.235C197.245 205 191.462 203.566 186.779 201.985C203.008 196.498 232.44 192.83 266.055 192.83C299.671 192.826 329.103 196.494 345.332 201.983Z" fill="#A17E6F"/>
<path fill-rule="evenodd" clip-rule="evenodd" d="M332.146 202.566C334.818 202.566 336.996 202.032 336.996 201.375C336.996 200.719 334.818 200.183 332.146 200.183C329.475 200.183 327.296 200.717 327.296 201.375C327.298 202.032 329.475 202.566 332.146 202.566Z" fill="#5C3D30"/>
<path fill-rule="evenodd" clip-rule="evenodd" d="M268.196 195.779C269.972 195.779 271.42 195.424 271.42 194.986C271.42 194.549 269.972 194.194 268.196 194.194C266.421 194.194 264.97 194.549 264.97 194.986C264.97 195.424 266.418 195.779 268.196 195.779Z" fill="#5C3D30"/>
<path fill-rule="evenodd" clip-rule="evenodd" d="M328.412 204.961C330.188 204.961 331.638 204.604 331.638 204.168C331.638 203.733 330.19 203.375 328.412 203.375C326.636 203.375 325.186 203.731 325.186 204.168C325.186 204.606 326.634 204.961 328.412 204.961Z" fill="#5C3D30"/>
<path fill-rule="evenodd" clip-rule="evenodd" d="M257.194 198.162C259.865 198.162 262.041 197.626 262.041 196.971C262.041 196.315 259.863 195.779 257.194 195.779C254.522 195.779 252.344 196.313 252.344 196.971C252.344 197.626 254.522 198.162 257.194 198.162Z" fill="#5C3D30"/>
<path fill-rule="evenodd" clip-rule="evenodd" d="M202.625 203.291C204.401 203.291 205.851 202.936 205.851 202.498C205.851 202.061 204.401 201.705 202.625 201.705C200.849 201.705 199.399 202.061 199.399 202.498C199.399 202.936 200.849 203.291 202.625 203.291Z" fill="#5C3D30"/>
<path fill-rule="evenodd" clip-rule="evenodd" d="M324.501 126.314C350.826 114.286 347.103 80.5393 313.609 77.8135C274.648 74.642 254.247 124.466 270.304 164.699C274.499 117.751 293.014 96.0784 314.865 96.3146C333.403 96.5179 327.309 120.703 324.501 126.314Z" fill="white"/>
<path fill-rule="evenodd" clip-rule="evenodd" d="M259.22 151.306C234.497 97.775 299.032 67.4055 286.496 32.4307C273.108 68.5968 206.1 94.431 259.22 151.306Z" fill="white"/>
<path fill-rule="evenodd" clip-rule="evenodd" d="M51.5837 367.931C111.389 367.931 160.167 358.972 160.167 347.985C160.167 337 111.389 328.039 51.5837 328.039C-8.22215 328.039 -57 336.998 -57 347.985C-57 358.972 -8.22215 367.931 51.5837 367.931Z" fill="#A38B5B"/>
<path fill-rule="evenodd" clip-rule="evenodd" d="M149.517 342.437V342.443L149.515 342.457C148.449 351.366 115.392 358.515 74.7637 358.515C33.4646 358.515 -0.0141803 351.126 -0.0141803 342.012L-17.811 153.799H167.338L149.517 342.437Z" fill="#DEC7ED"/>
<path fill-rule="evenodd" clip-rule="evenodd" d="M149.517 342.437V342.443L149.515 342.457C148.449 351.366 115.392 358.515 74.7638 358.515C55.0433 358.515 37.1059 356.829 23.7473 354.076C23.6819 353.796 23.6504 353.513 23.6504 353.229L5.85358 165.013H166.28L149.517 342.437Z" fill="#F0D9FF"/>
<path fill-rule="evenodd" clip-rule="evenodd" d="M74.7661 132.666C114.205 132.666 148.18 137.822 163.627 145.244H172.501V154.236C172.501 166.147 128.745 175.803 74.7637 175.803C20.7844 175.803 -22.9737 166.147 -22.9737 154.236V145.244H-14.0995C1.35223 137.822 35.3276 132.666 74.7661 132.666Z" fill="#5C3D30"/>
<path d="M74.7662 166.813C128.745 166.813 172.504 157.156 172.504 145.244C172.504 133.331 128.745 123.674 74.7662 123.674C20.7873 123.674 -22.9713 133.331 -22.9713 145.244C-22.9713 157.156 20.7873 166.813 74.7662 166.813Z" fill="#8C6757"/>
<path fill-rule="evenodd" clip-rule="evenodd" d="M74.7661 117.763C108.584 117.763 137.719 122.183 150.964 128.548H158.573V138.013C158.573 148.228 121.051 156.509 74.7661 156.509C28.4787 156.509 -9.04102 148.228 -9.04102 138.013V128.548H-1.42902C11.8132 122.183 40.9482 117.763 74.7661 117.763Z" fill="#5C3D30"/>
<path fill-rule="evenodd" clip-rule="evenodd" d="M74.7661 147.042C120.925 147.042 158.576 138.733 158.576 128.546C158.576 118.36 120.928 110.053 74.7661 110.053C28.6072 110.053 -9.04102 118.36 -9.04102 128.546C-9.04102 138.733 28.6072 147.042 74.7661 147.042Z" fill="#8C6757"/>
<path fill-rule="evenodd" clip-rule="evenodd" d="M124.709 130.978C130.776 130.978 135.725 129.887 135.725 128.548C135.725 127.209 130.778 126.116 124.709 126.116C118.643 126.116 113.693 127.209 113.693 128.548C113.693 129.887 118.641 130.978 124.709 130.978Z" fill="#5C3D30"/>
<path fill-rule="evenodd" clip-rule="evenodd" d="M156.177 284.83V284.836L156.175 284.852C155.014 294.553 119.011 302.342 74.7686 302.342C29.7894 302.342 -6.6692 294.295 -6.6692 284.37L-13.3703 213.489C2.42303 220.721 35.9551 225.711 74.771 225.711C113.599 225.711 147.136 220.715 162.922 213.48L156.177 284.83Z" fill="#8C6757"/>
<path fill-rule="evenodd" clip-rule="evenodd" d="M156.177 284.83V284.836L156.175 284.852C155.014 294.553 119.011 302.342 74.7661 302.342C52.8749 302.342 33.0019 300.434 18.3666 297.334L11.101 220.512C28.2074 223.752 50.4499 225.711 74.7637 225.711C113.592 225.711 147.129 220.715 162.915 213.48L156.177 284.83Z" fill="#A17E6F"/>
<path fill-rule="evenodd" clip-rule="evenodd" d="M128.581 110.256C97.1661 59.0865 162.244 55.3382 133.249 0C188.866 50.6534 114.951 58.0362 128.581 110.256Z" fill="white"/>
<path fill-rule="evenodd" clip-rule="evenodd" d="M163.474 27.599C173.238 62.274 130.591 70.187 136.457 107.532C149.481 71.5441 191.696 67.1092 163.474 27.599Z" fill="white"/>
</svg>
