<svg width="365" height="344" viewBox="0 0 365 344" fill="none" xmlns="http://www.w3.org/2000/svg">
<path opacity="0.15" d="M211.351 178.703C206.238 181.863 200.047 187.961 194.881 194.382C193.442 167.424 175.77 143.169 148.207 134.46C111.784 122.951 71.9049 142.939 59.1356 179.105C46.3663 215.271 65.5408 253.921 101.964 265.43C134.293 275.645 169.328 261.033 185.729 232.332C187.506 242.048 190.098 251.038 190.289 251.694C190.384 252.021 190.733 252.203 191.069 252.1C191.286 252.032 191.435 251.858 191.493 251.658C192.165 252.09 193.062 252.174 193.872 251.767C196.28 250.56 198.164 248.758 199.647 246.66C208.1 259.02 219.258 274.683 231.733 292.095C237.056 299.53 241.927 306.34 245.789 311.808C256.141 326.49 272.276 338.193 284.977 345.865C322.185 363.189 372.788 381.662 401.659 391.924L429.928 311.862L313.841 264.118C312.501 261.323 311.232 258.55 310.145 256.145C310.149 256.13 310.14 256.113 310.127 256.108C310.116 256.083 310.105 256.059 310.094 256.034C310.515 256.8 310.285 256.091 308.006 250.869C303.029 239.433 281.003 203.793 275.448 199.949C270.711 196.676 250.735 190.529 244.865 188.764C244.737 188.674 244.613 188.586 244.483 188.494C235.978 182.473 227.458 178.413 219.161 176.43C217.184 175.958 214.556 176.722 211.351 178.703Z" fill="#2A1009"/>
<path d="M308.848 244.376L323.408 249.627L439.495 297.371L411.226 377.433C382.356 367.171 331.752 348.698 294.545 331.374L308.848 244.376Z" fill="#B27E53"/>
<path d="M252.794 173.784C252.794 173.784 279.445 181.608 285.015 185.457C290.569 189.301 312.596 224.94 317.573 236.377C322.566 247.818 317.734 237.622 317.734 237.622L254.714 238.033L251.977 233.868L253.343 233.405L224.969 214.891L214.6 211.018C214.6 211.018 215.315 231.323 203.438 237.276C202.471 237.76 201.377 237.555 200.695 236.884C200.417 236.62 200.22 236.277 200.114 235.875C199.164 232.258 197.626 225.401 196.307 218.472C194.575 209.359 193.202 200.08 194.011 197.79C195.745 192.879 217.335 158.314 229.786 162.249C242.238 166.183 252.794 173.784 252.794 173.784Z" fill="#B27E53"/>
<path d="M265.97 183.1C265.948 183.162 265.915 183.222 265.873 183.278C265.659 183.554 265.262 183.617 264.986 183.414C264.937 183.379 260.071 179.816 253.293 175.017C244.916 169.086 236.54 165.093 228.397 163.146C226.786 162.762 224.426 163.491 221.568 165.258C211.575 171.434 197.377 189.005 195.374 197.69C192.886 208.476 200.988 236.546 201.071 236.827C201.165 237.155 200.969 237.503 200.635 237.607C200.298 237.71 199.95 237.529 199.854 237.201C199.515 236.036 191.581 208.545 194.142 197.448C196.207 188.53 210.712 170.518 220.917 164.21C224.122 162.23 226.75 161.465 228.728 161.938C237.026 163.921 245.545 167.98 254.051 174.001C260.837 178.805 265.712 182.374 265.759 182.409C265.981 182.572 266.058 182.852 265.97 183.1Z" fill="#2A1009"/>
<path d="M174.992 204.768L198.849 212.306C205.315 214.349 212.363 210.616 214.328 204.108C216.24 197.769 212.574 191.263 206.165 189.62L177.793 182.35L174.992 204.768Z" fill="white"/>
<path d="M187.842 166.982C179.167 129.897 141.344 107.627 103.363 117.241C65.3808 126.855 41.6231 164.711 50.2983 201.796C58.9735 238.881 96.7964 261.151 134.778 251.537C172.76 241.924 196.518 204.067 187.842 166.982Z" fill="white"/>
<path d="M109.911 122.525C122.228 120.419 134.223 121.897 144.812 126.192C164.279 134.073 176.212 150.572 179.488 172.709C182.765 194.845 176.58 217.179 160.351 231.164C151.524 238.782 140.548 244.188 128.232 246.294C93.3136 252.266 60.905 229.402 55.8452 195.223C50.7854 161.045 74.9923 128.496 109.911 122.525Z" fill="#B27E53"/>
<path d="M170.793 219.797C170.396 220.352 169.99 220.89 169.571 221.427C166.844 224.959 163.753 228.226 160.355 231.158C158.376 232.637 156.305 234.002 154.144 235.241C147.813 238.897 140.733 241.51 133.12 242.818C120.634 244.949 108.968 241.832 98.395 237.142C80.6143 229.284 68.6855 213.45 65.6503 192.925C61.4354 164.425 76.5292 138.071 103.034 127.694C107.007 126.115 111.2 124.944 115.556 124.196C125.757 122.463 135.734 123.27 144.811 126.192C154.892 130.267 163.713 136.925 170.321 145.451C176.477 153.371 180.72 162.932 182.299 173.596C184.784 190.383 180.209 206.772 170.793 219.797Z" fill="#2A1009"/>
<path d="M63.7481 193.872C66.7904 214.399 80.1236 230.674 97.909 238.542C108.479 243.231 120.63 244.946 133.123 242.816C140.733 241.515 147.809 238.899 154.144 235.242C156.3 234 158.373 232.64 160.349 231.156C160.888 230.69 161.431 230.211 161.943 229.737C162.473 229.254 162.994 228.752 163.496 228.259C164.017 227.757 164.505 227.26 165.002 226.735C165.495 226.224 165.974 225.708 166.443 225.175C166.927 224.645 167.382 224.107 167.838 223.569C168.299 223.016 168.739 222.473 169.186 221.917C169.32 221.757 169.459 221.585 169.58 221.421C169.868 221.047 170.156 220.673 170.435 220.28C170.459 220.257 170.468 220.229 170.478 220.201C170.589 220.065 170.699 219.929 170.795 219.789L170.78 219.785C158.895 220.014 147.003 225.217 138.894 233.988C138.381 234.555 137.845 235.145 137.158 235.455C134.998 236.4 132.936 234.322 130.795 233.445C127.105 231.953 122.778 234.26 118.796 233.73C113.735 233.077 110.614 228.292 106.706 225.165C103.314 222.435 98.9725 220.845 94.5524 220.674C92.6853 220.611 90.7112 220.762 89.1065 219.867C87.0633 218.71 86.2851 216.184 86.2039 213.85C86.1003 211.491 86.5186 209.112 86.0793 206.819C85.1883 202.134 81.0366 198.9 78.2274 195.05C71.8144 186.327 72.3352 174.15 75.7422 163.661C80.4206 149.216 90.3196 136.392 103.039 127.698C76.5348 138.068 59.538 165.379 63.7481 193.872ZM89.6028 226.646C89.0192 225.733 88.9957 224.516 89.4819 223.538C90.9066 220.609 94.776 222.297 94.7567 225.049C94.7591 226.368 93.7224 227.669 92.3925 227.899C91.312 228.085 90.1584 227.55 89.6028 226.646ZM93.3995 232.078C92.9493 231.672 92.8139 230.994 93.0306 230.427C93.5202 229.171 95.0899 229.015 95.7922 230.121C96.0722 230.567 96.1097 231.167 95.9046 231.661C95.7673 232.005 95.5181 232.314 95.1721 232.453C94.7934 232.597 94.3757 232.542 94.0156 232.413C93.7962 232.327 93.5807 232.228 93.3995 232.078ZM112.569 240.445C112.104 240.437 111.649 240.31 111.233 240.117C108.104 238.632 110.409 234.755 113.402 235.345C116.607 235.954 115.769 240.495 112.569 240.445ZM107.347 229.633C107.665 230.725 107.7 232.039 106.947 232.933C106.012 234.032 104.35 234.05 102.98 233.772C101.221 233.403 99.5254 232.635 98.2991 231.378C96.4245 229.437 95.3219 224.422 99.1885 223.908C102.853 223.391 106.377 226.365 107.347 229.633Z" fill="#B27E53"/>
<path d="M68.3282 190.46C68.6159 191 68.9916 191.51 69.5145 191.835C70.0366 192.16 70.7268 192.276 71.3042 192.019C72.0681 191.68 72.4382 190.818 72.617 190.017C72.991 188.34 72.7043 182.45 69.9759 182.663C66.8905 182.903 67.4518 188.818 68.3282 190.46Z" fill="#2A1009"/>
<path d="M66.4413 177.476C66.3655 178.328 66.7096 179.219 67.4082 179.704C68.1069 180.189 69.1564 180.19 69.8239 179.627C70.2929 179.232 70.5282 178.632 70.6688 178.046C70.966 176.809 70.7255 174.569 69.0345 174.476C67.6763 174.403 66.5411 176.361 66.4413 177.476Z" fill="#2A1009"/>
<path d="M66.3918 195.287C66.2241 196.056 66.2781 196.905 66.7353 197.531C67.3646 198.394 68.7317 198.607 69.6563 198.005C70.581 197.403 70.9383 196.095 70.4585 195.142C69.6645 193.566 66.8383 193.237 66.3918 195.287Z" fill="#2A1009"/>
<path d="M72.3745 196.588C72.2068 197.357 72.2604 198.205 72.718 198.832C73.3473 199.695 74.7144 199.908 75.639 199.306C76.5636 198.704 76.9217 197.395 76.4411 196.442C75.6472 194.866 72.8215 194.539 72.3745 196.588Z" fill="#2A1009"/>
<g opacity="0.33">
<path d="M121.031 139.442C124.584 141.106 128.497 141.979 132.441 142.399C134.926 142.664 137.532 142.738 139.873 141.788C142.215 140.838 144.219 138.618 144.166 136.154C144.112 133.64 142.046 131.675 139.895 130.373C134.273 126.968 127.27 126.37 120.868 128.272C114.052 130.297 115.39 136.799 121.031 139.442Z" fill="white"/>
</g>
<path opacity="0.33" d="M154.874 150.96C157.397 150.522 159.242 147.923 159.193 145.418C159.143 142.913 157.482 140.661 155.303 139.421C151.831 137.445 146.292 139.285 146.012 143.764C145.761 147.78 151.025 151.628 154.874 150.96Z" fill="white"/>
<path d="M316.516 234.255C316.516 234.255 317.794 237.357 319.695 241.616C319.709 241.62 319.717 241.639 319.713 241.653C320.8 244.058 322.069 246.831 323.409 249.627L294.708 330.914C284.626 324.844 272.393 316.11 262.633 305.057C250.173 290.95 226.389 256.07 209.84 231.212C209.487 230.666 209.142 230.139 208.798 229.611C204.059 222.47 199.964 216.247 196.99 211.709C196.374 210.755 195.805 209.893 195.29 209.095C195.028 208.686 194.776 208.297 194.527 207.939C194.357 207.669 194.188 207.398 194.022 207.159C193.944 207.026 193.861 206.907 193.778 206.788C193.695 206.669 193.627 206.554 193.558 206.439C192.924 205.448 193.018 204.253 193.635 203.347C193.726 203.221 193.818 203.095 193.924 202.973C194.197 202.687 194.529 202.451 194.903 202.275C194.974 202.251 195.051 202.213 195.122 202.189C198.699 200.901 205.223 199.846 214.538 203.27C216.059 203.828 217.662 204.505 219.324 205.325C219.468 205.402 219.604 205.46 219.749 205.537C219.922 205.622 220.094 205.708 220.281 205.798C222.214 206.78 224.136 207.837 226.006 208.955C226.188 209.06 226.37 209.163 226.547 209.281C226.561 209.286 226.561 209.286 226.561 209.286C237.025 215.6 246.134 223.455 250.67 227.632C252.642 229.433 253.749 230.543 253.749 230.543L254.374 230.585L254.379 230.571L254.91 230.615L316.516 234.255Z" fill="#B27E53"/>
<path d="M214.238 227.581C215.812 225.619 216.057 222.88 215.398 220.521C214.739 218.162 213.289 216.118 211.732 214.231C207.885 209.569 202.883 205.398 196.785 204.501C195.997 204.386 195.083 204.365 194.505 204.925C194.154 205.267 194.003 205.764 193.969 206.243C193.867 207.652 194.631 208.942 195.377 210.125C198.353 214.846 201.461 219.485 204.696 224.035C205.497 225.162 206.407 226.252 207.133 227.428C207.544 228.096 207.767 229.032 208.47 229.461C210.224 230.53 213.113 228.984 214.238 227.581Z" fill="#D2AA92"/>
<path d="M214.696 202.422C216.347 203.053 218.077 203.816 219.845 204.732C220.2 204.922 220.569 205.116 220.938 205.309C222.047 205.924 223.186 206.594 224.345 207.332C224.904 207.696 225.449 208.053 225.994 208.412C226.339 208.629 226.684 208.847 227.023 209.078C236.212 215.16 242.351 220.324 247.367 224.561C248.318 225.358 249.22 226.123 250.074 226.842C250.088 226.847 250.097 226.865 250.12 226.888C251.551 228.054 252.861 229.119 254.126 230.046C254.15 230.069 254.164 230.072 254.192 230.082C254.424 230.264 254.662 230.432 254.908 230.619C257.923 232.827 261.799 235.602 265.089 237.959C268.839 240.649 271.822 242.769 271.883 242.819C272.157 243.014 272.207 243.402 271.996 243.692C271.79 243.967 271.393 244.028 271.119 243.833C271.059 243.783 267.312 241.126 262.93 237.975C259.691 235.649 256.108 233.059 253.387 231.083C253.377 231.064 253.364 231.06 253.35 231.056C251.271 229.516 249.065 227.671 246.529 225.521C241.068 220.911 234.274 215.167 223.647 208.384C220.409 206.321 217.319 204.772 214.433 203.658C206.903 200.751 200.795 200.759 197.28 202.004C196.281 202.356 195.479 202.815 194.915 203.351C194.523 203.708 194.24 204.114 194.092 204.533C194.087 204.547 194.087 204.547 194.082 204.56C194.051 204.737 194.08 205.01 194.187 205.369C194.168 205.379 194.196 205.387 194.196 205.387L194.191 205.401C194.338 205.96 194.665 206.714 195.143 207.656C195.704 208.81 196.5 210.224 197.467 211.863C200.163 216.389 204.281 222.637 209.078 229.702C209.377 230.137 209.676 230.573 209.975 231.009C220.007 245.713 232.821 263.592 242.339 276.878C247.662 284.312 252.537 291.109 256.399 296.577C266.571 311.015 282.436 322.556 294.969 330.175L294.546 331.375C281.844 323.702 265.709 311.999 255.357 297.317C251.495 291.849 246.624 285.039 241.302 277.605C228.824 260.189 217.664 244.523 209.209 232.162C203.193 223.377 198.557 216.253 195.783 211.33C195.673 211.155 195.577 210.985 195.481 210.815C195.216 210.328 194.969 209.878 194.745 209.451C194.398 208.799 194.096 208.191 193.865 207.654C193.031 205.902 192.701 204.713 192.899 204.155C193.056 203.708 193.298 203.289 193.633 202.914C193.72 202.802 193.802 202.704 193.897 202.61C194.189 202.314 194.537 202.037 194.922 201.786C195.487 201.423 196.132 201.099 196.88 200.839C200.588 199.531 206.941 199.492 214.696 202.422Z" fill="#2A1009"/>
<path d="M254.341 230.738C254.307 230.835 254.247 230.926 254.164 231C253.903 231.236 253.503 231.224 253.271 230.975C250.593 228.089 230.167 198.729 225.795 192.432C223.184 202.353 220.877 205.419 220.776 205.551C220.562 205.827 220.168 205.888 219.892 205.687C219.616 205.486 219.564 205.101 219.774 204.82C219.799 204.789 222.242 201.478 224.918 190.805C224.984 190.562 225.176 190.377 225.422 190.328C225.669 190.278 225.918 190.376 226.056 190.576C226.308 190.94 251.334 227.019 254.214 230.122C254.374 230.293 254.414 230.529 254.341 230.738Z" fill="#2A1009"/>
<path d="M228.538 184.94C228.535 184.947 228.533 184.953 228.531 184.96L226.121 191.145C226.042 191.35 225.858 191.502 225.641 191.546C225.422 191.59 225.2 191.518 225.055 191.358L219.372 185.081C219.144 184.827 219.17 184.436 219.435 184.204C219.699 183.971 220.098 183.988 220.326 184.24L225.321 189.758L227.351 184.545C227.477 184.222 227.843 184.052 228.168 184.166C228.489 184.278 228.651 184.622 228.538 184.94Z" fill="#2A1009"/>
<path d="M229.982 203.006C228.894 206.087 227.22 208.797 227.105 208.981C226.921 209.277 226.531 209.377 226.235 209.204C225.938 209.032 225.844 208.649 226.033 208.355C226.076 208.285 230.398 201.286 229.532 197.402C229.456 197.067 229.673 196.732 230.014 196.648C230.356 196.566 230.693 196.768 230.766 197.102C231.151 198.827 230.691 200.996 229.982 203.006Z" fill="#2A1009"/>
</svg>
