<svg width="45" height="40" viewBox="0 0 45 40" fill="none" xmlns="http://www.w3.org/2000/svg">
<path fill-rule="evenodd" clip-rule="evenodd" d="M3.29506 2.92894C-2.68221e-07 5.85786 0 10.5719 0 20C0 29.428 -2.68221e-07 34.1422 3.29506 37.071C6.59009 40 11.8934 40 22.5 40C33.1065 40 38.41 40 41.7049 37.071C45 34.1422 45 29.428 45 20C45 10.5719 45 5.85786 41.7049 2.92894C38.41 -2.38419e-07 33.1065 0 22.5 0C11.8934 0 6.59009 -2.38419e-07 3.29506 2.92894ZM22.5 22C23.7427 22 24.75 21.1046 24.75 20C24.75 18.8954 23.7427 18 22.5 18C21.2573 18 20.25 18.8954 20.25 20C20.25 21.1046 21.2573 22 22.5 22ZM15.75 20C15.75 21.1046 14.7426 22 13.5 22C12.2574 22 11.25 21.1046 11.25 20C11.25 18.8954 12.2574 18 13.5 18C14.7426 18 15.75 18.8954 15.75 20ZM31.5 22C32.7427 22 33.75 21.1046 33.75 20C33.75 18.8954 32.7427 18 31.5 18C30.2573 18 29.25 18.8954 29.25 20C29.25 21.1046 30.2573 22 31.5 22Z" fill="white"/>
</svg>
