<svg width="214" height="270" viewBox="0 0 214 270" fill="none" xmlns="http://www.w3.org/2000/svg">
<path d="M-38.8506 199.081C-25.081 162.901 12.4488 150.142 51.5908 146.963C66.6568 145.74 80.8072 146.51 95.2809 141.871C116.244 135.15 137.662 132.18 158.927 142.224C169.006 146.985 176.616 152.931 188.416 152.549C196.716 152.281 205.314 149.314 213.52 148.152C211.368 152.48 205.027 154.621 202.549 159.203C200.318 163.328 200.294 169.563 198.677 174.12C194.335 186.363 186.313 202.171 172.884 207.508C164.404 210.879 152.189 208.355 144.607 212.611C135.76 217.576 132.841 233.42 127.092 241.33C112.774 261.024 88.1536 262.191 63.6394 259.363C52.1514 258.038 47.0956 263.615 37.5085 267.06C26.1036 271.157 13.582 269.828 2.1031 265.271C-25.4421 254.331 -38.4094 223.452 -38.8506 199.081Z" fill="#576C22"/>
<path d="M-30.859 201.081C-28.5457 201.31 -25.9242 201.571 -23.4129 201.645L-23.1243 201.654L-22.9475 201.464C-22.7148 201.212 -22.3764 201.09 -22.0213 201.131C-21.8052 201.156 -21.5967 201.24 -21.3308 201.452L-21.2915 201.484L-20.9273 201.654L-18.7364 201.575C-14.4769 201.424 -10.9246 201.291 -7.23178 201.076L-6.59566 201.039L-6.72258 200.522C-9.11144 190.792 -9.5874 180.414 -8.05829 171.297C-7.51585 168.056 -6.70294 164.936 -5.65431 161.977C-4.61173 161.408 -3.55254 160.859 -2.48125 160.326C-7.36022 171.843 -8.0598 185.936 -4.40624 200.482L-4.30501 200.885L-2.33771 200.733L-2.19567 200.613C-1.9524 200.408 -1.64265 200.322 -1.3193 200.369C-1.18634 200.389 -1.05035 200.434 -0.917383 200.505L-0.749664 200.594L-0.550214 200.575C2.97793 200.244 6.07545 199.838 8.92365 199.33C10.4664 199.055 12.0242 198.797 13.579 198.545L13.851 198.501L13.9749 198.296C15.031 196.54 14.7334 194.387 14.4161 192.108C14.3239 191.44 14.2302 190.767 14.1683 190.099C13.3493 181.287 15.6324 172.463 20.5945 165.251C23.4412 161.114 27.2715 158.173 30.984 155.321C32.6416 154.049 34.355 152.733 35.9672 151.318C36.9751 150.433 37.8847 149.442 38.7595 148.388C39.8641 148.232 40.9716 148.083 42.0837 147.944C40.7465 149.848 39.2642 151.529 37.5719 153.013C35.9159 154.465 34.1737 155.803 32.4769 157.106C28.7342 159.98 25.1985 162.695 22.5331 166.569C17.8415 173.386 15.6838 181.726 16.4574 190.05C16.5148 190.669 16.601 191.29 16.6946 191.963C16.9288 193.661 17.1963 195.586 16.808 197.388L16.6644 198.051L17.4652 197.924C21.69 197.253 26.4783 196.491 31.0988 195.508C36.0352 194.458 40.7676 192.662 46.0017 190.595L46.3673 190.451L46.316 190.119C45.2008 182.902 48.8061 176.753 52.0275 172.865C59.9496 163.302 64.8527 154.747 67.4229 146.078C68.2418 146.036 69.0608 145.99 69.8782 145.943C67.305 155.187 62.1994 164.256 53.8573 174.325C51.1133 177.64 47.9508 182.863 48.4751 188.923L48.5341 189.598L49.2729 189.309C50.8549 188.693 52.9416 187.894 55.0373 187.18C58.4174 186.032 61.8156 184.922 65.2335 183.851C72.4786 181.581 79.8326 179.479 87.2636 177.659L87.6262 177.57L87.664 177.26C88.2684 172.189 93.0159 167.52 97.2059 163.401C99.4225 161.222 101.518 159.164 102.795 157.274C104.41 154.885 105.741 152.215 107.032 149.631C109.026 145.634 111.087 141.501 114.303 138.101L114.556 137.833C114.838 137.535 115.138 137.218 115.445 136.896C116.705 136.695 117.965 136.513 119.227 136.361C118.112 137.478 117.113 138.534 116.299 139.395L116.043 139.664C113.033 142.848 111.128 146.665 109.112 150.708C107.795 153.348 106.433 156.078 104.744 158.578C103.359 160.627 101.196 162.752 98.8936 165.017C95.4063 168.447 91.452 172.335 90.2599 176.221L90.1904 176.957C92.3813 176.895 94.743 175.938 96.8734 175.497C99.5434 174.945 102.225 174.43 104.918 173.958C110.306 173.015 115.743 172.244 121.214 171.713L121.58 171.678L121.685 171.387C125.892 159.791 136.647 147.177 149.469 138.616C150.402 138.896 151.334 139.197 152.266 139.523C139.793 147.404 129.065 159.364 124.425 170.771L124.15 171.448L125.596 171.334C126.221 171.284 126.845 171.234 127.465 171.194C130.671 170.984 133.829 170.868 136.89 170.756C144.566 170.472 151.819 170.205 159.588 168.548C176.329 164.965 190.91 159.099 202.964 153.833C203.354 153.661 203.834 153.734 204.187 154.015C204.315 154.118 204.419 154.241 204.499 154.385C204.809 154.945 204.591 155.626 204.023 155.873C194.16 160.182 182.22 165.08 168.462 168.738L167.835 168.904L168.134 169.39C168.84 170.536 169.293 171.817 169.692 172.948C170.186 174.347 170.653 175.667 171.478 176.753C172.12 177.599 172.951 178.43 173.947 179.224C176.471 181.236 180.02 182.974 183.439 183.87L185.422 184.394C187.898 185.053 190.606 185.771 193.386 186.39C193.037 187.058 192.674 187.723 192.303 188.385C189.612 187.77 187.017 187.083 184.807 186.495L182.99 186.013C179.245 185.031 175.348 183.119 172.563 180.898C171.404 179.975 170.427 178.993 169.658 177.981C168.604 176.594 168.054 175.036 167.522 173.531C167.027 172.13 166.56 170.807 165.732 169.781L165.504 169.498L165.106 169.594C163.502 169.987 161.88 170.368 160.23 170.721C152.317 172.418 144.985 172.689 137.141 172.98C134.26 173.085 130.993 173.203 127.782 173.415C122.466 173.764 117.158 174.362 111.906 175.115C109.167 175.509 106.439 175.952 103.723 176.444C102.29 176.703 100.862 176.975 99.4361 177.26C98.531 177.441 95.9064 177.589 95.2794 178.127L94.7807 178.236L94.8699 178.656C95.1811 180.12 95.225 181.686 95.2627 183.069C95.3081 184.654 95.3519 186.151 95.6904 187.534L96.118 189.301C97.8057 196.331 99.5509 203.601 105.385 208.666C105.749 208.983 106.122 209.292 106.5 209.593C113.701 215.333 124.091 219.018 137.397 220.569C137.011 221.237 136.638 221.921 136.275 222.622C122.973 220.934 112.471 217.132 105.104 211.26C104.699 210.938 104.303 210.608 103.913 210.269C97.4884 204.692 95.6541 197.051 93.8787 189.658L93.4541 187.901C93.0597 186.291 93.0114 184.607 92.966 182.977C92.9283 181.653 92.8905 180.401 92.6805 179.245L92.5868 178.727L91.5926 178.956C90.8416 179.128 90.0891 179.3 89.24 179.512C89.1569 179.545 89.0874 179.567 89.0768 179.572L88.8864 179.593C84.4441 180.666 79.816 181.893 75.1334 183.242L74.6756 183.375L74.7678 183.768C75.2679 185.899 75.5006 188.058 75.7242 190.145C75.9932 192.652 76.2697 195.244 76.9919 197.699C78.7976 203.831 82.6793 209.109 89.2052 214.311C89.6071 214.631 90.0181 214.951 90.4397 215.269C97.9508 220.959 107.502 225.417 118.828 228.517C120.996 229.11 123.471 229.488 126.1 229.889C128.201 230.21 130.351 230.543 132.433 230.999C132.132 231.69 131.832 232.373 131.532 233.049C129.681 232.664 127.77 232.37 125.902 232.085C123.21 231.674 120.665 231.287 118.352 230.653C106.714 227.467 96.8734 222.866 89.101 216.979C88.6597 216.645 88.2276 216.309 87.806 215.973C80.8706 210.446 76.7336 204.786 74.7844 198.165C74.0077 195.528 73.7176 192.835 73.4366 190.221C73.2235 188.242 73.0226 186.373 72.6267 184.545L72.5089 184.006L71.8848 184.191C66.7203 185.729 61.3518 187.442 55.9303 189.284C53.4644 190.123 51.0181 191.076 48.7245 191.979L48.6142 192.023L48.5356 192.101C48.383 192.252 48.1881 192.35 47.975 192.388L47.6562 192.402L47.5444 192.447C42.4962 194.442 37.2757 196.505 31.7395 197.682C30.6939 197.904 29.6438 198.114 28.5891 198.315L28.0421 198.42L28.1706 198.872C28.9124 201.516 30.4491 203.786 32.5267 206.384C34.1012 208.352 35.9385 210.226 37.7336 212.057C39.8278 214.195 41.993 216.404 43.8213 218.844C46.251 222.086 48.3331 225.586 50.3442 228.969C51.2659 230.518 52.2194 232.12 53.1849 233.663C54.436 235.659 55.5919 237.728 56.71 239.729C59.8906 245.421 62.893 250.799 68.0182 254.883C68.7435 255.46 69.505 256.006 70.2847 256.507C72.4529 257.9 75.2271 259.253 78.1977 260.459C76.2546 260.405 74.2994 260.309 72.3366 260.174C71.158 259.562 70.0626 258.944 69.1076 258.33C68.2645 257.789 67.438 257.196 66.6523 256.57C61.1206 252.161 57.8599 246.325 54.7019 240.674C53.6004 238.701 52.4596 236.662 51.2387 234.71C50.2566 233.142 49.2956 231.529 48.3648 229.964C46.3855 226.637 44.3381 223.194 41.987 220.06C40.2584 217.755 38.2473 215.701 36.1062 213.515C34.284 211.656 32.3983 209.733 30.7422 207.662C28.778 205.207 26.8348 202.492 25.9388 199.27L25.7107 198.845L25.1728 198.939C22.7144 199.367 20.253 199.758 17.8339 200.143L16.8457 200.3C14.4115 200.685 11.9124 201.083 9.48725 201.519C6.65113 202.012 3.57628 202.414 0.0843987 202.747L-0.385515 202.792L-0.411202 203.183C-0.912849 210.73 1.39896 219.831 3.25595 227.143L3.51282 228.157C6.17366 238.66 11.237 246.22 17.5801 255.012C19.36 257.477 21.1853 259.398 23.4986 261.243C25.2725 262.657 27.205 263.942 29.6604 265.575C30.221 265.948 30.9523 266.388 31.7259 266.851C32.4104 267.261 33.1356 267.703 33.8655 268.164C32.8531 268.424 31.8347 268.653 30.8102 268.835C30.7468 268.798 30.6773 268.755 30.6153 268.718C29.8206 268.24 29.0696 267.791 28.4486 267.377C26.0431 265.777 23.9655 264.396 22.0994 262.909C19.6078 260.923 17.6405 258.851 15.7216 256.191C9.22736 247.192 4.04016 239.442 1.2811 228.543L1.02423 227.53C-0.811612 220.297 -3.09773 211.296 -2.73056 203.521L-2.70639 202.994L-3.34251 203.042C-5.39896 203.198 -7.45843 203.323 -9.51337 203.428L-9.98933 203.451L-10.0377 203.844C-11.7451 217.837 -8.35444 231.088 -4.76586 245.116L-4.21888 247.254C-3.84114 248.737 -3.48001 250.223 -3.08866 251.838C-2.07026 256.036 -1.01257 260.337 0.437971 264.561C-0.516971 264.145 -1.45529 263.709 -2.37246 263.245C-3.54196 259.547 -4.44704 255.825 -5.32643 252.194C-5.69511 250.676 -6.06228 249.16 -6.44758 247.644L-6.99305 245.51C-10.5801 231.487 -13.9693 218.242 -12.3933 204.095L-12.3344 203.563L-12.9811 203.589C-14.823 203.665 -16.6618 203.734 -18.4856 203.799L-20.3985 203.867L-21.2416 203.886L-21.3625 204.199C-21.9321 205.667 -22.9747 207.118 -23.8934 208.399C-24.809 209.673 -25.6733 210.877 -26.1266 212.022C-27.961 216.659 -28.1801 221.848 -28.3931 226.865C-28.4641 228.567 -28.5397 230.326 -28.6757 232.041C-28.798 233.572 -28.8283 235.132 -28.7739 236.765C-29.5641 235.321 -30.309 233.854 -31.0041 232.37C-30.9905 232.155 -30.9844 231.938 -30.9678 231.724C-30.8364 230.084 -30.7638 228.376 -30.6883 226.625C-30.4692 221.437 -30.2425 216.072 -28.2798 211.109C-27.7373 209.735 -26.7612 208.374 -25.8093 207.048C-25.2367 206.25 -24.5869 205.345 -24.0944 204.483L-23.7393 203.864L-24.5673 203.822C-26.7325 203.714 -28.9597 203.494 -30.9255 203.298C-33.5984 203.033 -36.1656 202.792 -38.6799 202.745C-38.7297 202 -38.769 201.257 -38.7977 200.522C-36.1611 200.568 -33.4806 200.821 -30.859 201.081Z" fill="#2A1009"/>
<path d="M-26.8111 171.354C-47.2441 140.835 -33.742 112.068 -11.4958 88.4827C-2.93305 79.4045 6.65565 72.0955 12.0891 61.1782C19.9583 45.3658 31.1396 31.6811 52.7104 26.3287C62.9352 23.7911 72.5496 23.3663 79.7223 16.6208C84.7659 11.8768 87.8226 5.25875 92.0881 1.58548e-05C94.2126 3.92939 91.9189 8.78082 94.0419 13.05C95.9533 16.8944 100.964 20.8588 103.612 24.6382C110.728 34.7896 118.384 49.2302 114.176 60.0125C111.518 66.8218 101.743 71.9543 100.368 78.8285C98.7637 86.8509 109.684 98.5004 112.414 106.683C119.213 127.055 104.549 141.362 86.7332 153.079C78.385 158.57 79.6754 164.891 76.3739 172.358C72.4484 181.24 63.4414 187.298 52.4928 190.734C26.2168 198.981 -6.88729 186.557 -26.8111 171.354Z" fill="#ADC367"/>
<path d="M-20.1341 168.217C-18.4841 167.088 -16.612 165.807 -14.9605 164.47L-14.7716 164.316L-14.8124 164.099C-14.8683 163.812 -14.7519 163.548 -14.4936 163.378C-14.3364 163.274 -14.1355 163.213 -13.797 163.201L-13.7471 163.199L-13.3785 163.107L-12.0533 161.849C-9.47559 159.406 -7.33151 157.365 -5.16476 155.192L-4.79155 154.817L-5.28866 154.56C-14.6447 149.711 -23.3102 143.394 -29.691 136.773C-31.959 134.419 -33.9581 131.996 -35.6776 129.543C-35.4766 128.607 -35.2469 127.676 -34.9976 126.748C-28.8071 136.736 -17.8918 146.054 -3.85322 153.259L-3.46339 153.46L-2.33922 152.28L-2.34526 152.125C-2.35584 151.861 -2.22892 151.635 -1.98716 151.488C-1.88743 151.426 -1.76505 151.381 -1.6215 151.353L-1.44321 151.316L-1.33139 151.195C0.637418 149.041 2.27381 147.076 3.66845 145.186C4.42394 144.161 5.20512 143.139 5.9863 142.123L6.1238 141.946L6.03767 141.748C5.29124 140.053 3.36776 138.854 1.32945 137.583C0.73261 137.209 0.131237 136.835 -0.447469 136.446C-8.06887 131.312 -13.7351 124.462 -16.4019 117.156C-17.9326 112.965 -17.8751 108.99 -17.8208 105.137C-17.7951 103.418 -17.7694 101.64 -17.8887 99.8535C-17.9628 98.7378 -18.1849 97.6083 -18.4811 96.4588C-17.9069 95.7504 -17.3236 95.047 -16.7313 94.3461C-16.0438 96.2902 -15.6298 98.1718 -15.5059 100.045C-15.385 101.878 -15.4107 103.685 -15.4364 105.446C-15.4923 109.33 -15.5452 113 -14.1113 116.923C-11.591 123.828 -6.23605 130.303 0.963789 135.153C1.49868 135.513 2.05321 135.859 2.65458 136.235C4.17161 137.182 5.89262 138.255 7.09838 139.611L7.54261 140.11L7.94755 139.588C10.0841 136.835 12.5047 133.714 14.6412 130.544C16.9228 127.158 18.4761 123.412 20.1261 119.218L20.2409 118.924L19.9402 118.742C13.4173 114.783 10.7459 108.899 9.65345 104.659C6.96692 94.2324 3.1804 86.1076 -2.17906 79.1984C-1.69252 78.7199 -1.21052 78.2401 -0.731534 77.7603C5.08877 85.0368 9.16238 93.599 11.9909 104.577C12.9232 108.191 15.1277 113.243 20.3452 116.795L20.9269 117.19L21.1626 116.599C21.6688 115.336 22.3457 113.681 23.0997 112.073C24.316 109.483 25.5747 106.905 26.8787 104.344C29.6407 98.9127 32.6083 93.5277 35.8494 88.279L36.0065 88.0229L35.7799 87.8055C32.0749 84.2597 31.3225 78.6824 30.6576 73.7635C30.3071 71.161 29.9762 68.7021 29.2615 66.7993C28.3594 64.3954 27.0524 61.9691 25.7862 59.6202C23.8295 55.9882 21.8033 52.2325 21.1022 48.3056L21.0463 47.9946C20.9843 47.651 20.9193 47.2836 20.8544 46.9113C21.4905 46.0892 22.1432 45.2809 22.8202 44.4887C23.0136 45.8118 23.2311 47.03 23.4094 48.0258L23.4653 48.3369C24.1226 52.0126 25.9932 55.4822 27.9741 59.1554C29.2675 61.5543 30.6047 64.0356 31.5491 66.5507C32.3227 68.6122 32.6657 71.151 33.0314 73.8559C33.5859 77.9515 34.213 82.5955 36.5897 85.714L37.1397 86.2188C38.4785 84.9719 39.2037 83.064 40.1995 81.6122C41.4476 79.7906 42.7304 77.9864 44.057 76.2048C46.7118 72.6377 49.5359 69.1532 52.576 65.8023L52.7799 65.5786L52.6122 65.3363C45.9322 55.6696 42.5823 41.7475 43.8092 29.256C44.6252 28.9199 45.4592 28.5976 46.3129 28.289C44.7596 40.1583 47.6003 53.6493 53.8527 63.4359L54.2229 64.0169L55.0479 63.1485C55.403 62.7725 55.7596 62.3977 56.1192 62.0291C57.9822 60.1287 59.8906 58.3159 61.7401 56.5567C66.3773 52.1476 70.7576 47.9808 74.3462 42.6483C82.0673 31.1526 86.5806 19.3995 89.9773 9.418C90.0861 9.09566 90.4487 8.87577 90.899 8.85953C91.0637 8.85328 91.2284 8.87451 91.3946 8.92199C92.0413 9.10565 92.4523 9.65663 92.2921 10.1277C89.5134 18.295 85.8931 27.9779 80.1227 37.8781L79.8598 38.3292L80.4415 38.4716C81.812 38.8089 83.1326 39.3712 84.296 39.8684C85.736 40.4819 87.0959 41.0629 88.495 41.2953C89.5845 41.4777 90.7796 41.5464 92.0519 41.5002C95.2733 41.384 98.9223 40.5306 101.811 39.2137L103.49 38.4541C105.59 37.507 107.884 36.4701 110.146 35.3294C110.463 35.9453 110.77 36.5663 111.068 37.191C108.868 38.2842 106.668 39.2787 104.793 40.1246L103.253 40.8205C100.087 42.261 96.0756 43.1981 92.5218 43.3255C91.0426 43.3793 89.6313 43.2956 88.3288 43.0782C86.5428 42.7796 84.9397 42.0961 83.3879 41.4339C81.9449 40.8192 80.582 40.2383 79.2297 40.0446L78.855 39.9909L78.6812 40.2707C77.9816 41.4052 77.2609 42.5396 76.4993 43.6716C72.8518 49.1077 68.4231 53.3207 63.6862 57.8273C61.944 59.4815 59.9692 61.3569 58.1046 63.261C55.0177 66.412 52.1347 69.7154 49.4135 73.0875C47.9947 74.8467 46.6227 76.6309 45.2991 78.4387C44.5995 79.392 43.915 80.3528 43.2411 81.3186C42.8135 81.9321 41.2693 83.4713 41.304 84.1585L41.0759 84.5021L41.4717 84.7195C42.8482 85.4766 44.1386 86.4449 45.2779 87.2995C46.5849 88.279 47.8194 89.2036 49.1475 89.8945L50.8413 90.7791C57.5773 94.3049 64.5429 97.9506 72.323 97.9456C72.808 97.9456 73.2945 97.9369 73.7765 97.9194C82.9663 97.5883 92.5203 94.1987 102.206 87.8492C102.499 88.4839 102.815 89.1236 103.15 89.7683C93.3589 96.0291 83.6387 99.4074 74.2359 99.7448C73.7191 99.7635 73.2024 99.7735 72.6826 99.7723C64.1153 99.7773 56.7946 95.9466 49.7096 92.2384L48.0249 91.3588C46.4761 90.5554 45.089 89.5147 43.7473 88.5077C42.6548 87.6893 41.6228 86.9172 40.5591 86.3L40.0816 86.0238L39.6359 86.716C39.2989 87.2395 38.9605 87.763 38.5933 88.3652C38.5676 88.4327 38.5404 88.4839 38.5374 88.4939L38.4331 88.6126C36.4825 91.7411 34.5393 95.0683 32.6582 98.5041L32.4738 98.8402L32.8501 99.0389C34.8838 100.113 36.7711 101.354 38.5963 102.552C40.7873 103.993 43.0522 105.482 45.4879 106.641C51.5742 109.533 58.289 110.74 66.6175 110.44C67.1297 110.421 67.648 110.397 68.1723 110.367C77.5193 109.835 87.1654 107.395 96.8417 103.119C98.6942 102.301 100.566 101.177 102.556 99.9809C104.146 99.0264 105.778 98.0531 107.465 97.1948C107.833 97.7982 108.192 98.3967 108.546 98.9901C107.062 99.766 105.614 100.633 104.202 101.481C102.163 102.705 100.238 103.862 98.262 104.735C88.3183 109.129 78.373 111.637 68.7027 112.188C68.1527 112.219 67.6087 112.244 67.0708 112.264C58.221 112.582 51.0363 111.276 44.465 108.153C41.8465 106.91 39.4923 105.363 37.2093 103.862C35.4792 102.725 33.8443 101.65 32.1203 100.711L31.6111 100.433L31.3648 100.895C29.331 104.716 27.3108 108.76 25.3586 112.916C24.4717 114.806 23.689 116.758 22.9652 118.595L22.9305 118.682L22.9426 118.774C22.9667 118.954 22.9244 119.124 22.8186 119.265L22.6283 119.449L22.5935 119.539C21.0009 123.586 19.3555 127.77 16.7959 131.567C16.3124 132.284 15.8168 132.995 15.3106 133.705L15.0477 134.072L15.4934 134.288C18.0938 135.555 20.8982 136.147 24.3085 136.648C26.8923 137.028 29.5667 137.203 32.1807 137.376C35.2314 137.577 38.3833 137.783 41.5095 138.321C45.6632 139.037 49.8018 140.108 53.8044 141.144C55.6372 141.617 57.5335 142.107 59.3875 142.553C61.7884 143.129 64.1894 143.802 66.5102 144.456C73.1147 146.311 79.3506 148.064 85.8916 147.828C86.8163 147.794 87.7396 147.721 88.6371 147.608C91.1347 147.296 93.9829 146.625 96.8372 145.752C95.5619 146.789 94.2458 147.804 92.8935 148.801C91.653 149.064 90.4608 149.275 89.3608 149.412C88.3893 149.533 87.389 149.613 86.3872 149.65C79.3279 149.903 72.5572 148.002 66.001 146.16C63.7134 145.518 61.3472 144.853 59.0007 144.29C57.1149 143.837 55.2051 143.344 53.3541 142.865C49.418 141.847 45.3459 140.794 41.3297 140.103C38.3757 139.594 35.4474 139.401 32.3288 139.196C29.6755 139.022 26.9315 138.842 24.2118 138.443C20.9889 137.969 17.568 137.319 14.404 135.77L13.9174 135.626L13.6515 135.982C12.4382 137.609 11.1947 139.213 9.97076 140.79L9.47063 141.435C8.23917 143.02 6.97448 144.65 5.78836 146.261C4.38919 148.137 2.76337 150.087 0.818734 152.222L0.557336 152.51L0.856511 152.772C6.62242 157.832 15.4209 162.326 22.4923 165.936L23.4729 166.437C33.6252 171.627 42.9268 173.628 54.0325 175.705C57.1482 176.287 59.8528 176.499 62.8053 176.393C65.0688 176.312 67.3307 176.062 70.2031 175.743C70.8588 175.671 71.6763 175.546 72.5406 175.414C73.3051 175.296 74.1196 175.176 74.9551 175.066C74.523 175.788 74.0621 176.494 73.559 177.175C73.488 177.186 73.4109 177.198 73.3414 177.208C72.4529 177.344 71.6143 177.473 70.8891 177.553C68.0756 177.864 65.6444 178.134 63.2646 178.22C60.084 178.335 57.1678 178.105 53.8074 177.476C42.4373 175.351 32.9045 173.298 22.3714 167.912L21.3923 167.412C14.3995 163.84 5.69619 159.395 -0.338678 154.265L-0.748154 153.918L-1.1123 154.299C-2.28936 155.531 -3.49361 156.745 -4.71297 157.944L-4.99553 158.222L-4.70995 158.497C5.48616 168.306 18.3159 174.835 31.8966 181.749L33.9667 182.803C35.4006 183.535 36.827 184.277 38.3772 185.085C42.407 187.184 46.5441 189.327 50.867 191.205C49.9272 191.467 48.9798 191.707 48.0249 191.919C44.3018 190.22 40.7298 188.36 37.2455 186.543C35.7889 185.785 34.3323 185.025 32.8667 184.278L30.8012 183.226C17.225 176.316 4.40279 169.788 -6.00184 159.955L-6.39319 159.585L-6.78151 159.958C-7.88755 161.022 -8.99661 162.079 -10.1011 163.124L-11.2586 164.223L-11.7783 164.699L-11.6031 164.962C-10.7811 166.207 -10.2719 167.701 -9.82161 169.019C-9.37436 170.331 -8.95279 171.57 -8.31667 172.546C-5.74195 176.496 -1.70007 179.905 2.21035 183.202C3.53699 184.321 4.90746 185.476 6.20388 186.639C7.35978 187.676 8.59879 188.683 9.94809 189.688C8.28299 189.208 6.62847 188.69 4.99207 188.131C4.82737 187.988 4.65512 187.846 4.49496 187.701C3.25595 186.589 1.92628 185.467 0.561866 184.316C-3.48152 180.906 -7.66241 177.381 -10.4184 173.155C-11.183 171.984 -11.6605 170.585 -12.1259 169.219C-12.4054 168.397 -12.7242 167.466 -13.1065 166.648L-13.3815 166.059L-13.939 166.489C-15.3986 167.614 -16.9882 168.702 -18.3919 169.661C-20.3003 170.967 -22.121 172.229 -23.7529 173.584C-24.386 173.14 -25.0085 172.691 -25.6205 172.24C-23.907 170.813 -22.0047 169.498 -20.1341 168.217Z" fill="#2A1009"/>
<path d="M52.8376 151.675C64.8196 148.441 71.3626 137.788 67.4518 127.88C63.541 117.973 50.6573 112.562 38.6753 115.796C26.6933 119.03 20.1503 129.683 24.0611 139.591C27.972 149.499 40.8556 154.909 52.8376 151.675Z" fill="#B02C2C"/>
<path d="M42.7742 119.094C42.6714 120.165 44.6962 121.172 47.2981 121.343C49.9 121.516 52.0924 120.787 52.1967 119.716C52.3009 118.646 50.2747 117.639 47.6728 117.468C45.0709 117.296 42.8769 118.025 42.7742 119.094Z" fill="#2A1009"/>
<path d="M2.53377 146.432C14.2609 146.432 23.7676 138.572 23.7676 128.875C23.7676 119.178 14.2609 111.317 2.53377 111.317C-9.19336 111.317 -18.7001 119.178 -18.7001 128.875C-18.7001 138.572 -9.19336 146.432 2.53377 146.432Z" fill="#576C22"/>
<path d="M45.082 173.304C55.8348 165.404 56.8061 151.791 47.2516 142.9C37.6971 134.009 21.2348 133.206 10.482 141.106C-0.27076 149.007 -1.24214 162.619 8.31237 171.51C17.8669 180.401 34.3292 181.205 45.082 173.304Z" fill="#D57052"/>
<path d="M14.0262 144.726C14.7303 145.804 17.4259 145.73 20.0475 144.561C22.6691 143.391 24.2239 141.57 23.5212 140.492C22.8171 139.413 20.1215 139.487 17.5 140.656C14.8769 141.825 13.3221 143.648 14.0262 144.726Z" fill="#2A1009"/>
<path d="M3.71863 159.427C5.93857 149.905 -1.59647 140.699 -13.1113 138.863C-24.6262 137.027 -35.7605 143.258 -37.9804 152.779C-40.2004 162.301 -32.6653 171.507 -21.1505 173.343C-9.6356 175.179 1.49868 168.948 3.71863 159.427Z" fill="#D57052"/>
<path d="M15.0823 199.731C28.0345 194.557 33.4617 181.68 27.2042 170.97C20.9467 160.26 5.37421 155.772 -7.57804 160.947C-20.5303 166.121 -25.9575 178.997 -19.7 189.707C-13.4425 200.417 2.13001 204.905 15.0823 199.731Z" fill="#B02C2C"/>
<path d="M0.350385 163.69C0.232529 164.912 2.54282 166.061 5.51341 166.258C8.4825 166.454 10.9862 165.623 11.1041 164.401C11.2219 163.179 8.91162 162.031 5.94102 161.834C2.97043 161.638 0.468242 162.47 0.350385 163.69Z" fill="#2A1009"/>
<path d="M56.6073 200.21C59.1943 190.751 52.0186 181.35 40.58 179.21C29.1414 177.071 17.7713 183.005 15.1843 192.463C12.5973 201.922 19.773 211.323 31.2116 213.462C42.6503 215.601 54.0203 209.668 56.6073 200.21Z" fill="#D57052"/>
<path d="M21.1838 189.789C22.0783 190.461 24.1272 189.802 25.7606 188.315C27.3939 186.829 27.9938 185.08 27.0993 184.408C26.2048 183.736 24.1559 184.396 22.5225 185.882C20.8892 187.369 20.2893 189.118 21.1838 189.789Z" fill="#2A1009"/>
<path d="M103.688 168.007C110.923 160.374 109.305 149.337 100.074 143.355C90.844 137.373 77.4966 138.711 70.2621 146.344C63.0277 153.976 64.6457 165.013 73.8761 170.995C83.1065 176.977 96.454 175.639 103.688 168.007Z" fill="#576C22"/>
<path d="M82.9376 143.772C82.9346 144.772 84.9019 145.584 87.3301 145.589C89.7582 145.593 91.7285 144.787 91.7315 143.789C91.7346 142.789 89.7673 141.977 87.3391 141.972C84.911 141.967 82.9391 142.773 82.9376 143.772Z" fill="#2A1009"/>
<path d="M57.0001 198.553C71.3836 198.385 82.8794 188.607 82.6766 176.714C82.4737 164.82 70.6491 155.315 56.2656 155.483C41.882 155.65 30.3863 165.428 30.5891 177.321C30.7919 189.215 42.6165 198.72 57.0001 198.553Z" fill="#B02C2C"/>
<path d="M43.2789 164.214C43.9453 165.308 46.6424 165.298 49.3032 164.19C51.9641 163.083 53.5808 161.298 52.9145 160.203C52.2481 159.109 49.551 159.119 46.8902 160.227C44.2293 161.334 42.6126 163.119 43.2789 164.214Z" fill="#2A1009"/>
</svg>
