<svg width="110" height="246" viewBox="0 0 110 246" fill="none" xmlns="http://www.w3.org/2000/svg">
<path d="M197.446 62.6642C186.686 94.8664 157.325 106.232 126.7 109.072C114.912 110.165 103.84 109.484 92.5179 113.618C76.1181 119.605 59.3608 122.254 42.7189 113.323C34.8308 109.089 28.8749 103.8 19.6405 104.144C13.1464 104.384 6.42138 107.029 0 108.065C1.68251 104.212 6.64348 102.305 8.57943 98.2259C10.3234 94.5537 10.3397 89.0054 11.6019 84.9485C14.9945 74.0524 21.2654 59.9809 31.7707 55.2279C38.4041 52.226 47.9621 54.4679 53.8929 50.6778C60.8137 46.2563 63.0909 32.1553 67.5864 25.1143C78.7818 7.58301 98.0447 6.53635 117.227 9.04621C126.216 10.2215 130.17 5.25723 137.671 2.18923C146.593 -1.46051 156.39 -0.282866 165.374 3.77161C186.933 13.4984 197.091 40.9747 197.446 62.6642Z" fill="#576C22"/>
<path d="M191.191 60.886C189.381 60.683 187.329 60.4518 185.364 60.3869L185.139 60.3798L185.001 60.5485C184.819 60.7727 184.554 60.8813 184.275 60.8447C184.106 60.8235 183.943 60.7479 183.735 60.5591L183.704 60.532L183.42 60.381L181.706 60.4518C178.373 60.5875 175.594 60.7066 172.705 60.899L172.207 60.932L172.306 61.3922C174.179 70.0499 174.554 79.2857 173.362 87.4006C172.938 90.2857 172.305 93.061 171.485 95.6948C170.67 96.2022 169.842 96.6907 169.004 97.1651C172.817 86.9144 173.359 74.371 170.494 61.4288L170.415 61.0689L168.877 61.2046L168.765 61.312C168.574 61.4949 168.332 61.5716 168.08 61.5291C167.976 61.5114 167.871 61.4713 167.765 61.4075L167.633 61.3285L167.478 61.345C164.718 61.6412 162.294 62.0034 160.065 62.4554C158.858 62.7008 157.639 62.9309 156.423 63.1551L156.211 63.1941L156.114 63.3758C155.289 64.9393 155.523 66.8544 155.772 68.8829C155.845 69.4776 155.917 70.0758 155.966 70.6706C156.61 78.5128 154.828 86.3669 150.948 92.7861C148.722 96.4689 145.726 99.0873 142.822 101.627C141.526 102.758 140.186 103.93 138.924 105.19C138.136 105.977 137.425 106.86 136.741 107.798C135.877 107.937 135.01 108.069 134.14 108.193C135.186 106.498 136.346 105.003 137.668 103.681C138.963 102.389 140.326 101.197 141.653 100.037C144.581 97.4778 147.346 95.0611 149.43 91.6132C153.098 85.5456 154.783 78.1234 154.173 70.7142C154.128 70.1643 154.06 69.6121 153.988 69.0126C153.803 67.5011 153.594 65.7889 153.897 64.1853L154.01 63.5941L153.383 63.7074C150.078 64.3056 146.332 64.9853 142.716 65.8621C138.854 66.7978 135.151 68.3979 131.057 70.2387L130.771 70.3673L130.812 70.6623C131.687 77.0839 128.868 82.5579 126.349 86.02C120.154 94.5325 116.32 102.147 114.313 109.863C113.671 109.901 113.032 109.941 112.392 109.983C114.402 101.756 118.393 93.6829 124.916 84.7196C127.061 81.7696 129.534 77.1204 129.121 71.7267L129.075 71.126L128.497 71.3833C127.258 71.932 125.627 72.6447 123.987 73.2807C121.343 74.3038 118.684 75.2926 116.011 76.2472C110.343 78.2698 104.59 80.1424 98.7773 81.7649L98.4938 81.844L98.465 82.1201C97.9945 86.6324 94.2806 90.7896 91.0034 94.457C89.2695 96.3969 87.6309 98.2295 86.6321 99.9121C85.37 102.038 84.3286 104.415 83.3211 106.715C81.7628 110.273 80.1518 113.952 77.6362 116.977L77.4379 117.217C77.2184 117.481 76.9826 117.764 76.7429 118.051C75.7568 118.23 74.7718 118.392 73.7844 118.528C74.6564 117.533 75.438 116.594 76.0742 115.827L76.2736 115.587C78.6274 112.754 80.1167 109.356 81.6913 105.757C82.7214 103.407 83.7853 100.976 85.1065 98.751C86.1905 96.9279 87.8805 95.0352 89.681 93.0186C92.4086 89.9647 95.5014 86.5038 96.4324 83.0464L96.4863 82.3915C94.7712 82.447 92.9243 83.2989 91.2581 83.6919C89.1691 84.1839 87.0713 84.6429 84.9647 85.0642C80.749 85.9055 76.4957 86.5935 72.216 87.0667L71.93 87.0985L71.8485 87.3581C68.5625 97.6796 60.1512 108.908 50.1226 116.53C49.3924 116.281 48.6635 116.013 47.9345 115.724C57.6908 108.707 66.0807 98.0595 69.7067 87.9068L69.9225 87.305L68.7908 87.4065C68.3015 87.4513 67.8134 87.495 67.3279 87.5316C64.8185 87.7192 62.3481 87.8242 59.9529 87.9245C53.9469 88.1782 48.2733 88.4189 42.1944 89.8963C29.0982 93.0905 17.692 98.3156 8.26066 103.005C7.95578 103.157 7.58063 103.093 7.30335 102.843C7.20298 102.752 7.12142 102.641 7.05868 102.515C6.81653 102.017 6.98594 101.412 7.43009 101.191C15.1463 97.3539 24.486 92.9914 35.2498 89.7311L35.7404 89.5824L35.5058 89.1505C34.9525 88.131 34.5974 86.9911 34.285 85.9846C33.8973 84.7409 33.5322 83.5656 32.886 82.5992C32.3829 81.8463 31.733 81.1076 30.9526 80.4008C28.9765 78.6108 26.1999 77.0661 23.525 76.2696L21.9742 75.8024C20.037 75.2171 17.9179 74.5787 15.741 74.0288C16.0145 73.4341 16.2968 72.8418 16.5879 72.2529C18.6932 72.7993 20.7245 73.4105 22.4535 73.9321L23.875 74.3604C26.8059 75.2336 29.856 76.934 32.0366 78.9093C32.9437 79.7306 33.7091 80.6038 34.3113 81.5041C35.1356 82.7384 35.5672 84.1237 35.9838 85.4642C36.3727 86.7115 36.7391 87.8879 37.3865 88.8013L37.5659 89.0538L37.8758 88.9676C39.1317 88.616 40.4002 88.2773 41.69 87.9634C47.8818 86.4519 53.6181 86.2076 59.7547 85.9468C62.0093 85.8524 64.5651 85.7462 67.0769 85.5574C71.2361 85.2447 75.3891 84.7114 79.4981 84.0388C81.6411 83.6883 83.7753 83.2918 85.9007 82.8541C87.0211 82.6228 88.139 82.3797 89.2544 82.126C89.9621 81.9643 92.0159 81.8322 92.5065 81.3531L92.8968 81.2563L92.8265 80.8823C92.5831 79.5796 92.5479 78.186 92.5165 76.9552C92.4802 75.5451 92.445 74.2117 92.1803 72.981L91.8453 71.4092C90.5217 65.1529 89.1528 58.6841 84.587 54.1777C84.3022 53.8969 84.0099 53.6207 83.7138 53.3529C78.0778 48.247 69.9464 44.9713 59.5339 43.5943C59.835 43.0007 60.1274 42.3919 60.4097 41.7676C70.8196 43.2662 79.0364 46.6457 84.8041 51.8696C85.1203 52.1563 85.4314 52.4502 85.7363 52.7511C90.765 57.713 92.2042 64.5121 93.5956 71.0918L93.928 72.6553C94.2379 74.089 94.2756 75.5876 94.312 77.0367C94.3421 78.2155 94.3723 79.3294 94.5366 80.3572L94.6106 80.8186L95.3885 80.6144C95.9757 80.461 96.5654 80.3064 97.2291 80.1188C97.2944 80.0881 97.3483 80.0693 97.3571 80.0657L97.5114 80.0456C100.987 79.0898 104.608 77.996 108.27 76.7936L108.628 76.6756L108.556 76.3251C108.165 74.4288 107.982 72.5078 107.805 70.6505C107.594 68.4191 107.376 66.1134 106.81 63.928C105.394 58.4717 102.356 53.7753 97.2467 49.1474C96.933 48.863 96.6105 48.5786 96.2805 48.2942C90.4012 43.2332 82.9259 39.2696 74.0629 36.5131C72.3666 35.9856 70.4294 35.6505 68.373 35.2942C66.7294 35.0098 65.0469 34.7136 63.4171 34.3077C63.6517 33.6929 63.8864 33.0852 64.121 32.4834C65.5701 32.8256 67.0644 33.0852 68.5261 33.3389C70.6327 33.7035 72.6238 34.0481 74.4343 34.6109C83.5419 37.4429 91.2431 41.534 97.327 46.7708C97.6733 47.0682 98.0108 47.3667 98.3407 47.6653C103.77 52.5823 107.009 57.6174 108.536 63.5091C109.146 65.8562 109.373 68.2527 109.594 70.5773C109.761 72.3391 109.919 74.0029 110.23 75.6289L110.322 76.1092L110.81 75.944C114.851 74.574 119.049 73.0471 123.291 71.4057C125.221 70.6587 127.134 69.8103 128.928 69.0044L129.015 68.9655L129.076 68.897C129.196 68.7625 129.347 68.6752 129.514 68.6409L129.764 68.6292L129.85 68.589C133.8 66.812 137.883 64.9747 142.215 63.9257C143.033 63.7274 143.855 63.541 144.679 63.3605L145.107 63.2672L145.007 62.8648C144.425 60.5131 143.223 58.4918 141.595 56.1813C140.363 54.4314 138.924 52.7641 137.52 51.1345C135.88 49.2323 134.185 47.2676 132.754 45.0964C130.852 42.2113 129.222 39.0985 127.646 36.0883C126.923 34.7101 126.177 33.2846 125.421 31.9123C124.442 30.1364 123.537 28.2956 122.661 26.515C120.171 21.4504 117.818 16.6655 113.807 13.0323C113.24 12.519 112.643 12.0328 112.033 11.5868C110.335 10.3478 108.165 9.14535 105.84 8.07273C107.361 8.11993 108.89 8.20489 110.426 8.32407C111.348 8.86805 112.205 9.41794 112.953 9.96428C113.613 10.4457 114.26 10.9732 114.875 11.5301C119.205 15.4525 121.759 20.6456 124.232 25.6736C125.095 27.4283 125.987 29.2431 126.945 30.9789C127.714 32.3737 128.465 33.8097 129.195 35.2021C130.745 38.1627 132.348 41.2248 134.189 44.0144C135.543 46.0652 137.116 47.8918 138.792 49.8365C140.219 51.4908 141.695 53.2007 142.992 55.0438C144.53 57.228 146.051 59.6435 146.753 62.5109L146.931 62.8885L147.353 62.8047C149.276 62.4224 151.202 62.0743 153.094 61.7309L153.867 61.5905C155.772 61.2471 157.727 60.8931 159.624 60.5048C161.842 60.0647 164.248 59.706 166.981 59.4086L167.349 59.3685L167.369 59.0204C167.758 52.3039 165.946 44.2055 164.489 37.699L164.289 36.7963C162.202 27.4495 158.239 20.7235 153.271 12.9013C151.877 10.7077 150.45 8.99785 148.638 7.35765C147.249 6.09977 145.736 4.95635 143.815 3.50377C143.376 3.17219 142.804 2.78162 142.198 2.36862C141.662 2.004 141.095 1.61105 140.523 1.20041C141.314 0.969133 142.111 0.764993 142.913 0.603333C142.963 0.637553 143.017 0.674133 143.066 0.708353C143.688 1.13197 144.275 1.53317 144.761 1.90015C146.644 3.32323 148.27 4.55161 149.731 5.87439C151.68 7.64085 153.221 9.48401 154.724 11.8511C159.808 19.8586 163.871 26.7533 166.034 36.4517L166.236 37.3533C167.675 43.789 169.467 51.7988 169.183 58.7183L169.164 59.188L169.661 59.1455C171.269 59.0062 172.881 58.893 174.489 58.8009L174.862 58.7797L174.899 58.4304C176.229 45.9767 173.572 34.185 170.759 21.7017L170.33 19.7996C170.034 18.4803 169.751 17.1587 169.444 15.7203C168.645 11.9844 167.815 8.15769 166.679 4.39939C167.425 4.76991 168.16 5.15813 168.878 5.56995C169.795 8.86097 170.504 12.1732 171.194 15.4041C171.483 16.7552 171.771 18.1051 172.074 19.4538L172.502 21.3536C175.314 33.8321 177.971 45.6192 176.744 58.2086L176.697 58.6818L177.203 58.6582C178.644 58.5897 180.082 58.5284 181.51 58.4705L183.007 58.4092L183.667 58.3926L183.761 58.1154C184.206 56.8091 185.021 55.517 185.74 54.3771C186.455 53.2431 187.131 52.1717 187.486 51.151C188.919 47.0245 189.089 42.4072 189.253 37.9409C189.308 36.427 189.366 34.8611 189.472 33.3342C189.568 31.9725 189.59 30.5836 189.547 29.131C190.166 30.416 190.749 31.7211 191.294 33.0427C191.284 33.2339 191.279 33.4274 191.266 33.6174C191.165 35.077 191.108 36.5969 191.051 38.1545C190.881 42.7718 190.707 47.5473 189.172 51.964C188.748 53.1877 187.985 54.3984 187.24 55.5795C186.792 56.2899 186.284 57.0958 185.899 57.8628L185.622 58.4139L186.269 58.4505C187.963 58.5461 189.707 58.7419 191.245 58.9154C193.337 59.1502 195.345 59.3638 197.313 59.4051C197.353 60.0694 197.383 60.7291 197.405 61.384C195.34 61.3415 193.242 61.1161 191.191 60.886Z" fill="#2A1009"/>
<path d="M191.137 91.9424C201.417 124.984 183.368 150.27 159.11 169C149.773 176.209 139.974 181.533 132.863 191.073C122.563 204.891 109.95 216.068 90.4576 217.363C81.217 217.977 72.9801 216.667 65.3568 221.879C59.9956 225.544 55.8853 231.371 51.0649 235.671C50.1703 231.508 53.2279 227.246 52.4124 222.756C51.6784 218.712 48.3485 213.999 46.9759 209.886C43.2872 198.837 40.1267 183.563 46.1704 173.933C49.9871 167.852 59.4423 164.659 62.1887 158.286C65.3931 150.848 58.8275 137.677 58.3984 129.309C57.3281 108.477 73.0328 97.3232 90.8114 89.2272C99.1424 85.4335 99.5038 79.117 104.016 72.5172C109.383 64.6667 118.4 60.4446 128.46 59.0947C152.599 55.8544 177.767 73.7397 191.137 91.9424Z" fill="#ADC367"/>
<path d="M184.762 93.7678C183.105 94.5608 181.225 95.4576 179.52 96.45L179.324 96.5633L179.309 96.7804C179.291 97.0671 179.131 97.2996 178.874 97.4176C178.717 97.4896 178.534 97.512 178.243 97.4636L178.2 97.4565L177.868 97.4801L176.458 98.4536C173.714 100.345 171.429 101.926 169.094 103.63L168.691 103.924L169.053 104.262C175.858 110.605 181.741 118.236 185.619 125.753C186.998 128.424 188.132 131.117 189.024 133.786C188.638 134.651 188.231 135.507 187.806 136.356C184.863 125.633 177.765 114.707 167.538 105.257L167.255 104.994L166.031 105.93L166.001 106.08C165.95 106.336 165.79 106.531 165.551 106.63C165.452 106.671 165.337 106.692 165.211 106.695L165.051 106.698L164.93 106.795C162.768 108.517 160.93 110.117 159.314 111.687C158.438 112.538 157.542 113.383 156.646 114.221L156.49 114.367L156.517 114.572C156.759 116.339 158.112 117.837 159.545 119.426C159.965 119.892 160.387 120.36 160.787 120.838C166.058 127.145 169.28 134.755 169.857 142.267C170.188 146.576 169.226 150.394 168.293 154.094C167.877 155.745 167.445 157.452 167.135 159.194C166.941 160.282 166.869 161.409 166.856 162.569C166.207 163.148 165.551 163.722 164.888 164.291C164.754 162.295 164.836 160.41 165.161 158.584C165.48 156.798 165.917 155.062 166.344 153.371C167.285 149.641 168.173 146.117 167.862 142.083C167.316 134.983 164.273 127.791 159.292 121.833C158.922 121.39 158.532 120.959 158.109 120.489C157.043 119.305 155.833 117.965 155.124 116.444L154.863 115.883L154.4 116.314C151.959 118.583 149.191 121.156 146.653 123.826C143.943 126.678 141.766 130.007 139.403 133.75L139.238 134.012L139.45 134.241C144.062 139.219 144.969 145.363 144.919 149.641C144.796 160.161 146.132 168.661 149.079 176.273C148.559 176.647 148.039 177.023 147.524 177.399C144.27 169.352 142.791 160.379 142.922 149.301C142.964 145.656 142.259 140.396 138.659 136.041L138.258 135.556L137.922 136.083C137.203 137.208 136.248 138.681 135.24 140.095C133.614 142.371 131.956 144.627 130.264 146.861C126.676 151.597 122.926 156.251 118.974 160.725L118.782 160.943L118.924 161.192C121.243 165.269 120.6 170.773 120.03 175.629C119.729 178.198 119.443 180.625 119.61 182.584C119.821 185.06 120.369 187.63 120.901 190.118C121.723 193.966 122.573 197.944 122.263 201.85L122.24 202.159C122.213 202.501 122.183 202.866 122.153 203.236C121.425 203.914 120.686 204.577 119.931 205.218C120.072 203.909 120.168 202.697 120.246 201.707L120.27 201.398C120.558 197.74 119.773 194.065 118.941 190.175C118.398 187.633 117.837 185.005 117.616 182.414C117.437 180.29 117.729 177.785 118.041 175.115C118.514 171.072 119.051 166.489 117.757 163.06L117.408 162.476C115.988 163.436 114.935 165.144 113.758 166.365C112.283 167.895 110.781 169.403 109.248 170.882C106.18 173.841 102.988 176.692 99.643 179.374L99.4197 179.554L99.5063 179.817C102.938 190.32 102.573 204.326 98.6607 216.134C97.8916 216.312 97.1124 216.474 96.3194 216.616C100.364 205.465 101.063 191.966 98.0208 181.425L97.8401 180.8L96.9418 181.489C96.5541 181.788 96.1664 182.085 95.7774 182.375C93.7637 183.873 91.7311 185.277 89.7613 186.639C84.8217 190.055 80.1543 193.283 75.891 197.775C66.7093 207.463 60.1863 217.973 55.0146 226.977C54.8477 227.268 54.4914 227.415 54.1049 227.35C53.9644 227.326 53.8289 227.277 53.6997 227.201C53.194 226.908 52.9732 226.304 53.2166 225.879C57.4474 218.513 62.7396 209.836 69.9012 201.335L70.2274 200.948L69.7682 200.707C68.6854 200.137 67.6968 199.359 66.826 198.672C65.7483 197.824 64.7294 197.021 63.6002 196.547C62.7207 196.176 61.7233 195.897 60.6367 195.713C57.8827 195.248 54.598 195.418 51.8478 196.168L50.2519 196.599C48.2557 197.136 46.075 197.723 43.8982 198.417C43.7715 197.767 43.6548 197.115 43.5469 196.46C45.661 195.8 47.7513 195.236 49.5329 194.758L50.9959 194.364C54.0071 193.543 57.6192 193.359 60.6568 193.872C61.9215 194.086 63.0971 194.418 64.1485 194.861C65.5914 195.467 66.7921 196.412 67.9527 197.327C69.0329 198.178 70.053 198.98 71.1534 199.409L71.4582 199.528L71.669 199.289C72.5222 198.322 73.3929 197.359 74.2975 196.404C78.6362 191.822 83.355 188.558 88.4013 185.066C90.2569 183.784 92.3597 182.332 94.3759 180.832C97.7146 178.349 100.914 175.685 103.994 172.925C105.6 171.485 107.171 170.011 108.709 168.508C109.52 167.715 110.322 166.912 111.114 166.104C111.618 165.59 113.28 164.384 113.407 163.716L113.679 163.426L113.394 163.146C112.403 162.171 111.534 161.008 110.766 159.981C109.885 158.805 109.053 157.693 108.087 156.79L106.856 155.636C101.964 151.037 96.9054 146.28 90.3184 144.893C89.9069 144.805 89.4941 144.727 89.0813 144.658C81.2258 143.333 72.3566 144.888 62.6969 149.269C62.594 148.605 62.4748 147.933 62.3393 147.253C72.0692 142.975 81.074 141.461 89.1114 142.818C89.553 142.892 89.9921 142.976 90.4325 143.069C97.687 144.596 103.003 149.596 108.148 154.433L109.373 155.581C110.498 156.631 111.434 157.882 112.339 159.091C113.076 160.074 113.771 161.003 114.531 161.788L114.871 162.139L115.408 161.552C115.813 161.108 116.22 160.664 116.67 160.151C116.708 160.091 116.742 160.046 116.747 160.038L116.862 159.942C119.233 157.279 121.644 154.422 124.026 151.451L124.26 151.161L123.987 150.902C122.513 149.504 121.201 147.972 119.931 146.491C118.408 144.712 116.833 142.872 115.037 141.322C110.549 137.449 105.142 135.087 98.022 133.885C97.5841 133.811 97.14 133.743 96.6883 133.677C88.6534 132.518 79.926 133.141 70.7506 135.527C68.9941 135.984 67.1497 136.732 65.1912 137.526C63.6253 138.161 62.0206 138.806 60.3946 139.33C60.2227 138.683 60.0559 138.043 59.8928 137.408C61.3268 136.926 62.7521 136.349 64.1436 135.785C66.1498 134.972 68.0455 134.203 69.92 133.714C79.3488 131.262 88.346 130.626 96.6594 131.825C97.1312 131.892 97.5992 131.967 98.0584 132.043C105.624 133.32 111.406 135.863 116.251 140.045C118.182 141.711 119.818 143.622 121.406 145.475C122.61 146.88 123.746 148.206 124.99 149.42L125.357 149.779L125.672 149.379C128.273 146.063 130.914 142.531 133.523 138.878C134.709 137.217 135.82 135.477 136.855 133.838L136.905 133.759L136.915 133.668C136.936 133.491 137.012 133.336 137.132 133.218L137.337 133.075L137.387 132.995C139.666 129.383 142.021 125.648 145.062 122.45C145.635 121.846 146.22 121.25 146.812 120.658L147.12 120.351L146.792 120.063C144.881 118.378 142.644 117.306 139.873 116.214C137.772 115.387 135.548 114.739 133.375 114.106C130.839 113.368 128.217 112.604 125.695 111.527C122.344 110.094 119.085 108.323 115.935 106.61C114.492 105.826 113 105.014 111.532 104.254C109.631 103.27 107.754 102.192 105.939 101.149C100.775 98.181 95.8979 95.3774 90.3071 94.4345C89.5166 94.3012 88.7174 94.208 87.932 94.1549C85.7464 94.0097 83.1806 94.1454 80.5621 94.4758C81.8795 93.7053 83.2283 92.9619 84.6021 92.2445C85.7125 92.2138 86.7702 92.2244 87.7325 92.2881C88.5832 92.3448 89.4489 92.4474 90.3046 92.5914C96.3395 93.6097 101.634 96.6518 106.761 99.5982C108.55 100.626 110.401 101.689 112.257 102.652C113.751 103.425 115.252 104.242 116.71 105.034C119.809 106.72 123.014 108.461 126.255 109.845C128.638 110.864 131.074 111.573 133.666 112.329C135.872 112.971 138.154 113.635 140.365 114.506C142.984 115.539 145.731 116.777 148.053 118.835L148.432 119.06L148.738 118.765C150.14 117.416 151.561 116.093 152.96 114.794L153.531 114.263C154.939 112.957 156.383 111.614 157.758 110.274C159.374 108.718 161.198 107.131 163.336 105.423L163.624 105.193L163.432 104.887C159.714 98.9834 153.299 93.0823 148.143 88.341L147.428 87.6826C140.028 80.8693 132.613 77.2785 123.689 73.2925C121.186 72.175 118.944 71.4871 116.419 71.0611C114.485 70.7342 112.511 70.5702 110.007 70.3637C109.434 70.3165 108.714 70.2906 107.951 70.2634C107.278 70.2398 106.56 70.2091 105.827 70.1655C106.359 69.5472 106.913 68.9501 107.494 68.3849C107.556 68.3872 107.624 68.3896 107.685 68.3919C108.468 68.4203 109.209 68.4462 109.841 68.4993C112.295 68.7023 114.414 68.8781 116.449 69.2215C119.168 69.6805 121.585 70.4227 124.285 71.6287C133.421 75.7091 141.019 79.3907 148.698 86.4625L149.412 87.1197C154.511 91.8102 160.856 97.6465 164.785 103.666L165.053 104.074L165.449 103.773C166.729 102.797 168.027 101.844 169.336 100.907L169.64 100.69L169.462 100.373C163.085 89.1045 153.727 80.5223 143.82 71.4352L142.311 70.051C141.264 69.0893 140.228 68.1194 139.102 67.0644C136.174 64.3221 133.165 61.5184 129.937 58.9378C130.793 58.854 131.65 58.7915 132.508 58.7572C135.268 61.0594 137.865 63.4902 140.397 65.862C141.456 66.8532 142.514 67.8444 143.583 68.8274L145.09 70.2103C154.993 79.2928 164.347 87.8726 170.893 99.2017L171.139 99.6277L171.553 99.3374C172.735 98.5114 173.917 97.6925 175.092 96.8818L176.325 96.0323L176.874 95.6665L176.786 95.3809C176.376 94.0357 176.288 92.5052 176.212 91.1565C176.135 89.8137 176.062 88.5452 175.749 87.4902C174.478 83.2269 171.839 79.2208 169.287 75.3469C168.421 74.0335 167.527 72.6753 166.697 71.3231C165.957 70.1183 165.14 68.9265 164.228 67.7182C165.527 68.4781 166.808 69.2734 168.066 70.1041C168.172 70.2717 168.286 70.4381 168.389 70.6068C169.182 71.8989 170.05 73.2181 170.939 74.5704C173.578 78.5765 176.307 82.7183 177.667 87.2814C178.045 88.5452 178.127 89.9789 178.207 91.376C178.254 92.2173 178.309 93.1708 178.445 94.0274L178.542 94.6434L179.112 94.3295C180.607 93.5082 182.203 92.7448 183.612 92.0722C185.528 91.1565 187.358 90.2668 189.052 89.2532C189.486 89.7948 189.91 90.3376 190.323 90.8816C188.555 91.9436 186.64 92.8699 184.762 93.7678Z" fill="#2A1009"/>
</svg>
