<svg width="130" height="127" viewBox="0 0 130 127" fill="none" xmlns="http://www.w3.org/2000/svg">
<g clip-path="url(#clip0_4_2)">
<path fill-rule="evenodd" clip-rule="evenodd" d="M94.9633 31.2811C96.6753 31.7426 97.8528 33.2649 97.8501 35.0093C97.8941 35.1204 97.8944 35.1866 97.8944 35.1866C97.8944 35.1866 97.7892 50.1289 79.663 63.9833C72.9242 69.1331 66.9821 77.2032 64.7016 85.0514C64.2555 86.5684 62.9331 87.6875 61.3409 87.9012C59.7481 88.113 58.1893 87.3787 57.3767 86.0311C52.8105 78.1936 48.9738 65.3764 57.8464 50.3908C66.4944 35.7871 82.1764 28.0885 94.9633 31.2811ZM92.0175 36.2507C80.8671 34.9555 69.8853 41.6614 62.9947 53.2859C57.5217 62.519 58.507 72.964 61.1248 79.8616C63.3561 73.4454 67.677 65.7709 76.0296 59.3865C86.6724 51.2521 90.8533 40.7133 92.0175 36.2507Z" fill="#1A120B"/>
<path fill-rule="evenodd" clip-rule="evenodd" d="M71.198 97.867C69.4343 97.4002 68.2157 95.8344 68.2185 94.0376C68.1733 93.975 68.1723 93.9389 68.1723 93.9389C68.1723 93.9389 68.2776 78.9965 86.4037 65.1422C93.2058 59.9434 99.1955 51.7697 101.428 43.8521C101.851 42.3745 103.126 41.2765 104.675 41.0585C106.221 40.8409 107.741 41.5451 108.539 42.8507C113.173 50.6603 117.187 63.5904 108.22 78.7346C99.5933 93.3028 83.9676 100.999 71.198 97.867ZM74.0492 92.8747C85.1996 94.1699 96.1814 87.4641 103.072 75.8396C108.545 66.6065 107.56 56.1616 104.942 49.264C102.711 55.6801 98.3896 63.3546 90.037 69.739C79.3943 77.8734 75.2135 88.4121 74.0492 92.8747Z" fill="#1A120B"/>
<path fill-rule="evenodd" clip-rule="evenodd" d="M48.6049 97.468C50.3721 97.4461 51.9097 96.2813 52.3749 94.6164C52.4521 94.5013 52.4724 94.4279 52.4724 94.4279C52.4724 94.4279 56.4151 79.9796 42.5578 62.1063C37.4228 55.4825 33.8438 46.2571 33.73 38.135C33.6995 36.5456 32.7063 35.1268 31.1991 34.5235C29.694 33.9203 27.9653 34.2497 26.8014 35.3609C20.2668 41.8042 13.1412 53.1965 17.6872 69.7997C22.1376 86.0578 35.3063 97.3906 48.6049 97.468ZM57.8247 88.7823C59.3989 89.6634 60.6929 90.0325 62.5556 89.7229C61.7695 91.5585 60.6055 92.9158 59.4923 93.8802C58.9845 94.2711 58.2839 94.3247 57.7212 94.0151C57.1565 93.7075 56.8375 93.0964 56.9147 92.4693C56.9655 91.4692 57.2113 90.2805 57.8247 88.7823ZM47.0509 91.9395C35.8689 90.4174 27.0188 81.2179 23.4722 68.2857C20.6549 58.0145 24.439 48.18 28.8489 42.1733C29.2795 48.9201 31.3982 57.4014 37.7845 65.6385C45.9217 76.1339 47.1301 87.3437 47.0509 91.9395ZM50.9225 65.1484C50.3741 64.3169 49.7993 63.5133 49.2042 62.7453C35.3449 44.87 39.2895 30.4238 39.2895 30.4238C39.2895 30.4238 39.3119 30.3424 39.3484 30.2095C39.8136 28.5446 41.3391 27.3698 43.1063 27.3202C50.9856 27.4115 58.8241 31.3941 64.8326 38.014C63.3762 39.3991 62.0538 40.7525 60.8594 42.0919C56.5715 37.0635 51.0099 33.7674 44.709 32.9102C44.6379 37.1706 45.6717 47.1183 52.3078 56.9092C51.5685 59.5028 51.1256 62.2194 50.9225 65.1484Z" fill="#8C6757"/>
</g>
<defs>
<clipPath id="clip0_4_2">
<rect width="130" height="127" fill="white"/>
</clipPath>
</defs>
</svg>
